<svg width="268" height="59" viewBox="0 0 268 59" fill="none" xmlns="http://www.w3.org/2000/svg">
<path d="M139.458 29.6777C139.262 29.5479 138.907 29.3532 138.415 29.1801C137.706 28.9421 136.741 28.7474 135.56 28.9421C135.166 29.007 134.753 29.1152 134.32 29.2883C134.28 29.3099 134.241 29.3099 134.202 29.3316C133.985 29.4181 133.768 29.5263 133.552 29.6561C133.375 29.7643 133.178 29.8724 133.001 30.0023C132.587 30.2835 132.174 30.6081 131.76 30.9326C131.307 27.882 131.524 25.0477 131.622 23.6413C131.622 23.6413 131.622 23.6413 131.642 23.6413C132.626 24.3337 132.351 26.2376 132.134 26.7785C132.134 26.8002 132.154 26.8002 132.154 26.7785C133.375 25.1775 132.784 23.425 132.528 22.9923C132.528 22.9706 132.528 22.9706 132.548 22.9706C132.725 23.1221 132.863 23.2952 132.981 23.4683C133.355 24.0092 133.493 24.5717 133.532 25.0909C133.552 25.3506 133.552 25.6102 133.532 25.8266C133.532 25.8915 133.532 25.9347 133.512 25.9996C133.512 25.9996 133.512 25.9996 133.532 25.9996C133.867 25.2857 134.024 24.2039 133.532 23.1437C133.394 22.8625 133.217 22.5812 132.981 22.2999C132.922 22.2134 132.843 22.1485 132.764 22.0619V22.0403C132.843 22.0619 132.902 22.0836 132.981 22.1052C133.197 22.1917 133.375 22.2999 133.532 22.4297C133.906 22.7326 134.162 23.1437 134.3 23.5764C134.418 23.9226 134.477 24.2904 134.477 24.6366C134.477 24.6582 134.497 24.6582 134.497 24.6366C134.733 23.7062 134.595 22.9923 134.3 22.4946C134.083 22.1268 133.808 21.8672 133.532 21.6725C133.335 21.5427 133.138 21.4561 132.981 21.3912C132.882 21.3479 132.784 21.3263 132.705 21.3263V21.3047C132.804 21.3047 132.882 21.283 132.961 21.283C133.178 21.283 133.355 21.3047 133.512 21.3263C133.847 21.3912 134.103 21.521 134.28 21.6725C134.595 21.9105 134.753 22.1701 134.812 22.2783C134.812 22.2999 134.832 22.2783 134.832 22.2783C134.792 21.7807 134.576 21.3912 134.3 21.1316C134.083 20.9152 133.808 20.7638 133.532 20.6772C133.355 20.6123 133.158 20.5907 132.981 20.5907C132.725 20.5907 132.489 20.634 132.292 20.7205C132.292 20.7205 132.272 20.7205 132.272 20.6989C132.449 20.4176 132.705 20.2445 132.981 20.158C133.158 20.0931 133.355 20.0714 133.532 20.0931C133.709 20.0931 133.867 20.1363 133.985 20.2012C134.005 20.2012 134.005 20.2012 134.005 20.1796C133.867 20.0065 133.709 19.8767 133.532 19.7685C133.355 19.6604 133.158 19.5954 132.981 19.5738C132.489 19.5089 131.977 19.7469 131.642 20.3094H131.622C131.563 20.1796 131.504 20.0498 131.445 19.8983C131.307 19.5522 131.209 19.1627 131.15 18.7949H131.13C131.071 19.1844 130.953 19.5738 130.815 19.92C130.756 20.0714 130.697 20.2013 130.638 20.3311H130.618C130.028 19.3575 128.925 19.3791 128.256 20.2229C128.256 20.2229 128.256 20.2445 128.275 20.2445C128.728 20.0065 129.575 20.0714 129.988 20.7421C129.988 20.7421 129.988 20.7638 129.968 20.7638C129.319 20.4609 128.295 20.6556 127.763 21.3696C127.566 21.6292 127.448 21.9321 127.409 22.3216C127.409 22.3216 127.429 22.3432 127.429 22.3216C127.468 22.235 127.586 22.0403 127.763 21.8672C128.078 21.5643 128.63 21.2398 129.535 21.3479C129.555 21.3479 129.555 21.3696 129.535 21.3696C129.063 21.4345 128.118 21.8888 127.763 22.9274C127.606 23.3817 127.566 23.9659 127.744 24.6799H127.763V24.6366C127.763 23.6846 128.275 22.4081 129.496 22.0836C129.516 22.0836 129.516 22.0836 129.496 22.1052C128.137 23.425 128.275 25.0477 128.708 26.0213C128.708 26.0429 128.728 26.0213 128.728 26.0213C128.669 25.2857 128.63 23.9875 129.713 23.0139C129.713 23.0139 129.732 23.0139 129.732 23.0355C129.476 23.4899 128.886 25.2424 130.106 26.8218C130.106 26.8434 130.126 26.8218 130.126 26.8218C129.909 26.2809 129.634 24.377 130.618 23.6846H130.638C130.736 25.0693 130.973 27.9252 130.5 30.9759C129.713 30.3052 128.886 29.721 128.059 29.3748C127.96 29.3316 127.862 29.2883 127.763 29.2666C126.917 28.9637 126.129 28.8772 125.46 28.8988C124.357 28.9421 123.53 29.3099 123.077 29.5695C122.979 29.6128 122.9 29.6777 122.841 29.6994C122.821 29.721 122.841 29.7643 122.861 29.7426C122.92 29.721 122.999 29.6994 123.077 29.6777C123.924 29.4181 124.712 29.3532 125.46 29.4181C126.287 29.5046 127.055 29.7426 127.763 30.1104C128.767 30.6081 129.693 31.322 130.52 32.0793C129.358 33.2044 128.374 34.2862 127.763 34.6756C127.744 34.6972 127.704 34.7189 127.685 34.7189C127.547 34.5025 127.291 34.3727 127.015 34.4376C126.779 34.5025 126.582 34.6972 126.543 34.9569C126.503 35.1949 126.543 35.4329 126.661 35.5627C126.976 35.9088 127.35 35.9305 127.763 35.7357C128.571 35.3679 129.575 34.178 130.815 32.9447C130.914 32.8366 131.032 32.7284 131.13 32.6418C131.229 32.75 131.347 32.8366 131.445 32.9447C131.996 33.5073 132.528 34.0482 132.981 34.5242C133.178 34.7189 133.355 34.892 133.532 35.065C133.808 35.303 134.064 35.5194 134.3 35.6492C134.773 35.9305 135.186 35.9521 135.54 35.6276C135.56 35.6059 135.58 35.5843 135.599 35.5627C135.678 35.4761 135.777 35.1732 135.718 34.9569C135.698 34.8271 135.619 34.6972 135.54 34.6107C135.462 34.5241 135.363 34.4592 135.245 34.4376C134.969 34.3727 134.733 34.5025 134.576 34.7189C134.497 34.6756 134.398 34.6107 134.3 34.5458C134.083 34.3727 133.827 34.1347 133.532 33.8534C133.355 33.6804 133.178 33.5073 132.981 33.3125C132.607 32.9231 132.174 32.512 131.74 32.0793C132.134 31.7115 132.548 31.3653 132.981 31.0408C133.158 30.911 133.355 30.7812 133.532 30.6513C133.788 30.4783 134.044 30.3268 134.3 30.197C134.694 29.9806 135.107 29.8075 135.54 29.6777C136.426 29.3965 137.371 29.3099 138.395 29.483C138.73 29.5479 139.065 29.6345 139.419 29.7426C139.458 29.7426 139.478 29.6994 139.458 29.6777Z" fill="white"/>
<path d="M131.142 46.1922L129.276 48.2422L131.142 50.2922L133.007 48.2422L131.142 46.1922Z" fill="white"/>
<path d="M116.122 34.4212L115.446 36.7051L117.525 37.4476L118.2 35.1638L116.122 34.4212Z" fill="white"/>
<path d="M123.983 14.6623L122.192 14.3594L121.896 16.3066L123.688 16.6311L123.983 14.6623Z" fill="white"/>
<path d="M145.149 26.5176L143.869 27.9239L145.149 29.3302L146.429 27.9239L145.149 26.5176Z" fill="white"/>
<path d="M144.057 21.82L143.235 23.5938L144.849 24.497L145.671 22.7233L144.057 21.82Z" fill="white"/>
<path d="M121.896 39.5216L122.192 41.4905L123.983 41.1876L123.688 39.2188L121.896 39.5216Z" fill="white"/>
<path d="M140.126 14.3424L138.337 14.6543L138.621 16.6201L140.41 16.3082L140.126 14.3424Z" fill="white"/>
<path d="M127.233 41.1885L125.619 42.0918L126.441 43.8655L128.055 42.9622L127.233 41.1885Z" fill="white"/>
<path d="M131.15 11.1609L129.869 12.5684L131.15 13.9758L132.431 12.5684L131.15 11.1609Z" fill="white"/>
<path d="M129.093 13.5781L128.213 14.9082L129.423 15.8749L130.303 14.5448L129.093 13.5781Z" fill="white"/>
<path d="M134.104 40.9482L132.903 39.9746L132.017 41.2944L133.237 42.268L134.104 40.9482Z" fill="white"/>
<path d="M120.813 20.8066L119.376 21.3259L119.848 22.8837L121.266 22.3861L120.813 20.8066Z" fill="white"/>
<path d="M142.488 32.9494L141.064 33.457L141.526 35.0211L142.95 34.5135L142.488 32.9494Z" fill="white"/>
<path d="M118.981 28.8708L118.102 30.2012L119.312 31.1675L120.192 29.8371L118.981 28.8708Z" fill="white"/>
<path d="M149.329 32.2482L146.979 33.5645L148.176 36.1476L150.527 34.8314L149.329 32.2482Z" fill="white"/>
<path d="M118.766 43.1555L119.179 46.0331L121.798 45.5787L121.384 42.7012L118.766 43.1555Z" fill="white"/>
<path d="M140.521 10.2688L140.935 13.1464L143.554 12.692L143.12 9.81445L140.521 10.2688Z" fill="white"/>
<path d="M115.019 29.0066L113.734 30.9492L115.502 32.3611L116.787 30.4185L115.019 29.0066Z" fill="white"/>
<path d="M126.435 11.9587L125.613 13.7324L127.227 14.6357L128.049 12.862L126.435 11.9587Z" fill="white"/>
<path d="M118.257 21.8244L116.644 22.7285L117.466 24.5018L119.08 23.5978L118.257 21.8244Z" fill="white"/>
<path d="M131.146 41.8767L129.866 43.2852L131.148 44.6916L132.428 43.2832L131.146 41.8767Z" fill="white"/>
<path d="M141.507 20.8066L141.054 22.3861L142.471 22.8837L142.944 21.3259L141.507 20.8066Z" fill="white"/>
<path d="M123.314 36.5352H121.817V38.1795H123.314V36.5352Z" fill="white"/>
<path d="M114.139 19.6816L111.796 21.0014L112.997 23.5977L115.34 22.2779L114.139 19.6816Z" fill="white"/>
<path d="M112.999 32.2491L111.801 34.832L114.151 36.1491L115.35 33.5662L112.999 32.2491Z" fill="white"/>
<path d="M123.149 10.649L122.475 12.9336L124.554 13.6742L125.228 11.3896L123.149 10.649Z" fill="white"/>
<path d="M139.833 42.8958L137.765 42.1602L137.076 44.4319L139.163 45.1892L139.833 42.8958Z" fill="white"/>
<path d="M146.191 34.4237L144.112 35.166L144.788 37.4499L146.866 36.7076L146.191 34.4237Z" fill="white"/>
<path d="M147.294 29.0059L145.522 30.4122L146.802 32.3594L148.574 30.9531L147.294 29.0059Z" fill="white"/>
<path d="M144.795 18.3828L144.105 20.6762L146.192 21.4118L146.862 19.1184L144.795 18.3828Z" fill="white"/>
<path d="M143.633 14.2285H141.447V16.6301H143.633V14.2285Z" fill="white"/>
<path d="M124.56 42.1527L122.481 42.8945L123.157 45.1787L125.235 44.4368L124.56 42.1527Z" fill="white"/>
<path d="M133.421 43.7058L132.136 45.6484L133.904 47.0603L135.188 45.1177L133.421 43.7058Z" fill="white"/>
<path d="M117.467 31.3203L116.64 33.0945L118.254 34.0031L119.081 32.229L117.467 31.3203Z" fill="white"/>
<path d="M123.314 17.6465H121.817V19.2908H123.314V17.6465Z" fill="white"/>
<path d="M119.295 24.6778L118.085 25.6445L118.965 26.9746L120.175 26.0079L119.295 24.6778Z" fill="white"/>
<path d="M135.737 15.4841L136.19 17.0635L137.627 16.5443L137.155 14.9648L135.737 15.4841Z" fill="white"/>
<path d="M132.017 14.5321L132.903 15.8735L134.104 14.8999L133.218 13.5801L132.017 14.5321Z" fill="white"/>
<path d="M140.227 33.9609L139.006 34.1773L139.203 35.5403L140.423 35.324L140.227 33.9609Z" fill="white"/>
<path d="M141.742 26.9512L140.856 27.9248L141.742 28.8768L142.609 27.9248L141.742 26.9512Z" fill="white"/>
<path d="M148.179 19.6691L146.98 22.252L149.331 23.5691L150.529 20.9862L148.179 19.6691Z" fill="white"/>
<path d="M143.613 39.2188H141.428V41.6203H143.613V39.2188Z" fill="white"/>
<path d="M117.525 18.3828L115.458 19.1184L116.127 21.4118L118.214 20.6762L117.525 18.3828Z" fill="white"/>
<path d="M137.076 11.3938L137.765 13.6872L139.833 12.9516L139.163 10.6582L137.076 11.3938Z" fill="white"/>
<path d="M127.114 10.7246L128.886 12.1525L130.166 10.2053L128.394 8.77734L127.114 10.7246Z" fill="white"/>
<path d="M144.854 31.3203L143.239 32.229L144.066 34.0031L145.681 33.0945L144.854 31.3203Z" fill="white"/>
<path d="M117.171 26.5176L115.892 27.9239L117.171 29.3302L118.451 27.9239L117.171 26.5176Z" fill="white"/>
<path d="M143.324 28.8692L142.113 29.8359L142.993 31.166L144.203 30.1993L143.324 28.8692Z" fill="white"/>
<path d="M124.692 39.3044L125.145 40.8622L126.582 40.3646L126.13 38.7852L124.692 39.3044Z" fill="white"/>
<path d="M132.036 39.542L131.15 38.5684L130.284 39.542L131.15 40.5156L132.036 39.542Z" fill="white"/>
<path d="M125.657 17.9507L124.436 17.7344L124.239 19.0974L125.46 19.2921L125.657 17.9507Z" fill="white"/>
<path d="M120.834 30.6062L120.271 31.8203L121.375 32.44L121.939 31.2259L120.834 30.6062Z" fill="white"/>
<path d="M120.873 14.2285H118.688V16.6301H120.873V14.2285Z" fill="white"/>
<path d="M132.154 10.2053L133.434 12.1525L135.206 10.7246L133.926 8.77734L132.154 10.2053Z" fill="white"/>
<path d="M136.702 42.0962L135.088 41.1875L134.261 42.9833L135.875 43.8703L136.702 42.0962Z" fill="white"/>
<path d="M119.067 35.8252L118.783 37.791L120.572 38.1029L120.856 36.1371L119.067 35.8252Z" fill="white"/>
<path d="M141.708 17.7764L141.424 19.7422L143.213 20.0541L143.497 18.0883L141.708 17.7764Z" fill="white"/>
<path d="M140.502 36.5352H139.006V38.1795H140.502V36.5352Z" fill="white"/>
<path d="M143.004 24.6989L142.125 26.0293L143.336 26.9957L144.215 25.6652L143.004 24.6989Z" fill="white"/>
<path d="M128.217 40.9482L129.083 42.268L130.304 41.2944L129.418 39.9746L128.217 40.9482Z" fill="white"/>
<path d="M127.591 15.9559L127.027 17.1699L128.132 17.7894L128.696 16.5754L127.591 15.9559Z" fill="white"/>
<path d="M134.153 38.0468L133.591 39.2617L134.696 39.8797L135.259 38.6648L134.153 38.0468Z" fill="white"/>
<path d="M136.856 36.554L136.663 37.9004L137.888 38.1123L138.081 36.7659L136.856 36.554Z" fill="white"/>
<path d="M121.372 23.4038L120.268 24.0234L120.831 25.2375L121.936 24.6179L121.372 23.4038Z" fill="white"/>
<path d="M141.488 30.5659L140.383 31.1855L140.947 32.3996L142.052 31.78L141.488 30.5659Z" fill="white"/>
<path d="M122.093 33.9609L121.896 35.324L123.117 35.5403L123.314 34.1773L122.093 33.9609Z" fill="white"/>
<path d="M136.663 17.9507L136.86 19.2921L138.081 19.0974L137.884 17.7344L136.663 17.9507Z" fill="white"/>
<path d="M128.155 38.0485L127.05 38.668L127.614 39.882L128.718 39.2625L128.155 38.0485Z" fill="white"/>
<path d="M121.798 10.2688L119.199 9.81445L118.766 12.692L121.384 13.1464L121.798 10.2688Z" fill="white"/>
<path d="M143.534 43.1555L140.935 42.7012L140.521 45.5787L143.12 46.0331L143.534 43.1555Z" fill="white"/>
<path d="M129.3 7.58665L131.151 9.64205L133.021 7.58665L131.151 5.53125L129.3 7.58665Z" fill="white"/>
<path d="M115.517 23.4668L113.745 24.8948L115.025 26.842L116.797 25.414L115.517 23.4668Z" fill="white"/>
<path d="M146.782 23.4753L145.497 25.418L147.265 26.8299L148.55 24.8872L146.782 23.4753Z" fill="white"/>
<path d="M120.873 39.2188H118.688V41.6203H120.873V39.2188Z" fill="white"/>
<path d="M127.114 45.1036L128.394 47.0508L130.166 45.6445L128.886 43.6973L127.114 45.1036Z" fill="white"/>
<path d="M138.611 39.2393L138.327 41.2051L140.116 41.517L140.4 39.5512L138.611 39.2393Z" fill="white"/>
<path d="M120.596 17.7389L118.807 18.0508L119.09 20.0166L120.879 19.7047L120.596 17.7389Z" fill="white"/>
<path d="M143.217 35.8033L141.428 36.1152L141.712 38.081L143.5 37.7691L143.217 35.8033Z" fill="white"/>
<path d="M134.261 12.8657L135.088 14.6399L136.702 13.7312L135.875 11.957L134.261 12.8657Z" fill="white"/>
<path d="M125.14 14.975L124.679 16.5391L126.102 17.0465L126.564 15.4824L125.14 14.975Z" fill="white"/>
<path d="M137.627 39.3044L136.19 38.7852L135.737 40.3646L137.155 40.8622L137.627 39.3044Z" fill="white"/>
<path d="M119.848 32.9434L119.376 34.5228L120.813 35.0204L121.266 33.4626L119.848 32.9434Z" fill="white"/>
<path d="M140.502 17.6465H139.006V19.2908H140.502V17.6465Z" fill="white"/>
<path d="M132.036 16.3056L131.15 15.332L130.284 16.3056L131.15 17.2576L132.036 16.3056Z" fill="white"/>
<path d="M123.117 20.3086L121.896 20.525L122.093 21.8664L123.314 21.65L123.117 20.3086Z" fill="white"/>
<path d="M120.577 26.9512L119.711 27.9248L120.577 28.8768L121.463 27.9248L120.577 26.9512Z" fill="white"/>
<path d="M140.942 23.4051L140.378 24.6191L141.483 25.2388L142.047 24.0247L140.942 23.4051Z" fill="white"/>
<path d="M139.203 20.3086L139.006 21.65L140.227 21.8664L140.423 20.525L139.203 20.3086Z" fill="white"/>
<path d="M124.239 36.7515L124.416 38.1146L125.657 37.8982L125.46 36.5352L124.239 36.7515Z" fill="white"/>
<path d="M134.673 15.9469L133.568 16.5664L134.132 17.7805L135.237 17.161L134.673 15.9469Z" fill="white"/>
<path d="M51.746 25.1772C51.746 23.5545 51.3916 22.2563 50.7025 21.326C50.0528 20.4389 49.0289 19.8115 47.6507 19.4004L47.257 20.8933C49.1077 21.4125 50.0724 22.6674 50.1512 24.6579H46.5088V26.0642H51.7263L51.746 25.1772Z" fill="white"/>
<path d="M41.1334 21.4547C41.3894 21.1086 41.7634 20.9355 42.1966 20.9355C43.0826 20.9355 43.5157 21.5845 43.5157 22.8611V24.6568H42.5904C41.3697 24.6568 40.7396 24.0294 40.7396 22.7745C40.7396 22.2336 40.8774 21.8009 41.1334 21.4547ZM42.4132 26.0632H45.0908V22.6447C45.0908 20.5677 44.1655 19.5508 42.3147 19.5508C41.2909 19.5508 40.4837 19.897 39.9127 20.5677C39.3811 21.1951 39.1055 21.9956 39.1055 22.9476C39.1252 25.0246 40.2277 26.0632 42.4132 26.0632Z" fill="white"/>
<path d="M43.2399 18.708C43.4761 18.708 43.6533 18.6215 43.8108 18.4484C43.9683 18.2753 44.0471 18.059 44.0471 17.7993C44.0471 17.5397 43.9683 17.3233 43.8108 17.1503C43.6533 16.9772 43.4564 16.8906 43.2399 16.8906C43.0233 16.8906 42.8264 16.9772 42.6689 17.1503C42.5114 17.3233 42.4326 17.5397 42.4326 17.7993C42.4326 18.059 42.5114 18.2753 42.6689 18.4484C42.8264 18.5999 43.0036 18.708 43.2399 18.708Z" fill="white"/>
<path d="M61.8653 27.4258C61.7078 27.5989 61.6094 27.8369 61.6094 28.0749C61.6094 28.3345 61.6881 28.5509 61.8653 28.7456C62.0228 28.9187 62.2197 29.0052 62.456 29.0052C62.6923 29.0052 62.8891 28.9187 63.0466 28.7239C63.2042 28.5509 63.3026 28.3129 63.3026 28.0749C63.3026 27.8152 63.2238 27.5989 63.0466 27.4258C62.8891 27.2527 62.6726 27.1445 62.456 27.1445C62.2197 27.1445 62.0228 27.2527 61.8653 27.4258Z" fill="white"/>
<path d="M54.7182 21.4549C54.9742 21.1087 55.3482 20.9356 55.8011 20.9356C56.2736 20.9356 56.6477 21.0222 56.9627 21.1736V24.6353H56.1752C54.9348 24.6353 54.3244 24.0079 54.3244 22.753C54.3244 22.2338 54.4623 21.8011 54.7182 21.4549ZM55.998 26.0633H56.9627V26.258C56.9627 27.448 56.2539 28.0538 54.8363 28.0538C54.2063 28.0538 53.5566 27.9673 52.9265 27.8158L52.8281 29.2654C53.4581 29.3736 54.0882 29.4385 54.6985 29.4385C55.998 29.4385 56.9824 29.114 57.6518 28.4432C58.2425 27.8591 58.5378 27.0586 58.5378 26.0633H59.5616H59.7388H65.7636C65.9014 25.1546 65.9801 24.3108 65.9801 23.5752C65.9801 22.2554 65.6848 21.2818 65.0942 20.6544C64.4641 19.9837 63.4797 19.6591 62.1408 19.6591C61.6683 19.6591 61.1564 19.7024 60.5658 19.7889V21.1736C61.058 21.1087 61.5108 21.0654 61.9636 21.0654C62.8299 21.0654 63.46 21.2818 63.8341 21.7145C64.1885 22.1256 64.3657 22.7747 64.3657 23.6401C64.3657 23.9646 64.346 24.3108 64.3066 24.6786H59.7388H59.5616H58.5378V20.0053C57.7896 19.7024 56.943 19.5293 55.9783 19.5293C54.9151 19.5293 54.0882 19.8755 53.4975 20.5678C52.9856 21.1736 52.71 21.9741 52.71 22.9261C52.71 25.0248 53.8125 26.0633 55.998 26.0633Z" fill="white"/>
<path d="M41.192 18.708C41.4283 18.708 41.6251 18.6215 41.7827 18.4484C41.9402 18.2753 42.0189 18.059 42.0189 17.7993C42.0189 17.5397 41.9402 17.3233 41.7827 17.1503C41.6251 16.9772 41.4283 16.8906 41.192 16.8906C40.9754 16.8906 40.7785 16.9772 40.621 17.1503C40.4635 17.3233 40.3848 17.5397 40.3848 17.7993C40.3848 18.059 40.4635 18.2753 40.621 18.4484C40.7785 18.5999 40.9754 18.708 41.192 18.708Z" fill="white"/>
<path d="M100.79 19.4648H99.1366V24.5493H98.1522H97.6599H96.8527V19.4865H95.1792V26.1503C95.1792 27.6432 94.6673 28.0975 93.8207 28.0975C93.4269 28.0975 93.1119 28.0326 92.7969 27.9244L92.6787 29.374C92.974 29.4606 93.3481 29.5039 93.7419 29.5039C96.3014 29.5039 96.8527 27.8163 96.8527 26.0421V25.9772H97.6599H98.1522H100.81L100.79 19.4648Z" fill="white"/>
<path d="M91.6349 18.6208C92.1074 18.6208 92.5012 18.188 92.5012 17.6688C92.5012 17.1495 92.0877 16.7168 91.6349 16.7168C91.1623 16.7168 90.7686 17.1711 90.7686 17.6688C90.7686 18.188 91.1623 18.6208 91.6349 18.6208Z" fill="white"/>
<path d="M100.751 27.8602C100.751 27.2976 100.377 26.9082 99.8849 26.9082C99.3926 26.9082 99.0186 27.3193 99.0186 27.8602C99.0186 28.3794 99.3926 28.7905 99.8849 28.7905C100.377 28.7905 100.751 28.4011 100.751 27.8602Z" fill="white"/>
<path d="M89.5082 25.9765H92.4615V19.4641H90.8076V24.5485H89.5082H89.3113H88.2087V16.2188H86.5352V25.9765H89.3113H89.5082Z" fill="white"/>
<path d="M74.4268 27.8602C74.4268 28.3794 74.8008 28.7905 75.2734 28.7905C75.7459 28.7905 76.1397 28.3794 76.1397 27.8602C76.1397 27.2976 75.7656 26.9082 75.2734 26.9082C74.8008 26.9082 74.4268 27.3193 74.4268 27.8602Z" fill="white"/>
<path d="M81.7507 20.7191C82.5973 20.7191 83.0895 21.3033 83.0895 22.688V24.527H82.1248C80.8253 24.527 80.2347 23.8996 80.2347 22.5798C80.2543 21.5197 80.8056 20.7191 81.7507 20.7191ZM74.0524 30.412L74.1705 28.9624C72.7136 28.9624 72.0835 28.2484 72.0835 27.4911C72.0835 26.6473 72.5954 25.955 74.4462 25.955H77.6358H77.8326H84.7434V22.45C84.7434 20.5028 83.8574 19.2695 81.8885 19.2695C79.7031 19.2695 78.6202 20.8706 78.6202 22.6447C78.6202 23.6183 78.8565 24.2458 79.329 24.6136C79.329 24.6136 79.073 24.527 78.6202 24.527H77.8326H77.6358H77.0254C77.0648 24.1159 77.0845 23.7265 77.0845 23.402C77.0845 20.7408 75.9622 19.3777 73.127 19.3777C72.5758 19.3777 72.0048 19.4426 71.5126 19.5075V20.9355C71.9851 20.8706 72.4379 20.8273 72.9695 20.8273C74.7809 20.8273 75.4306 21.736 75.4306 23.4885C75.4306 23.8347 75.4109 24.2025 75.3716 24.5487H74.5052C71.6307 24.5487 70.4297 25.8684 70.4297 27.6209C70.4297 29.222 71.5716 30.412 74.0524 30.412Z" fill="white"/>
<path d="M18.9441 26.7988C18.4913 26.7988 18.1172 27.2099 18.1172 27.7075C18.1172 28.1835 18.4716 28.6162 18.9441 28.6162C19.397 28.6162 19.771 28.2052 19.771 27.7075C19.771 27.1883 19.397 26.7988 18.9441 26.7988Z" fill="white"/>
<path d="M20.9724 26.7988C20.5196 26.7988 20.1455 27.2099 20.1455 27.7075C20.1455 28.1835 20.4999 28.6162 20.9724 28.6162C21.4253 28.6162 21.7994 28.2052 21.7994 27.7075C21.7797 27.1883 21.4056 26.7988 20.9724 26.7988Z" fill="white"/>
<path d="M30.0682 24.3337H28.7687H27.9812C28.0206 23.9226 28.0403 23.5332 28.0403 23.2086C28.0403 20.5474 26.918 19.1844 24.0828 19.1844C23.5315 19.1844 22.9999 19.2493 22.5274 19.3358V20.7638C22.9803 20.6772 23.4528 20.634 23.945 20.634C25.7564 20.634 26.4061 21.5427 26.4061 23.2952C26.4061 23.6413 26.3864 24.0092 26.347 24.3553H22.1336H21.9368H20.8342V19.2925H19.1607V24.3337H17.8612H16.5224H17.1327H16.7586H15.7939H15.4198H15.2229H17.1721H16.9752H17.1327H16.2467H15.8136H14.9276H15.1245H13.9825H13.7856H12.6437H12.4468H11.3049H10.0054V16.0039H8.35156V25.7617H11.1277H12.4665H12.6634H13.8053H14.0022H15.1442H14.9473H15.8333H16.2664H17.1524H16.5421H16.9949H17.1918H15.4395H15.8136H16.7783H17.1524H16.5421H17.8809H21.9565H22.1533H28.6309H31.7811V16.0039H30.1273V24.3337H30.0682Z" fill="white"/>
<path d="M35.4235 16.0254H33.75V25.7831H35.4235V16.0254Z" fill="white"/>
<path d="M3.94134 16.8477C3.78383 17.0208 3.70508 17.2371 3.70508 17.4967C3.70508 17.7564 3.78383 17.9727 3.94134 18.1458C4.09885 18.3189 4.29574 18.4055 4.51231 18.4055C4.74858 18.4055 4.92578 18.3189 5.08329 18.1458C5.2408 17.9727 5.31955 17.7564 5.31955 17.4967C5.31955 17.2371 5.2408 17.0208 5.08329 16.8477C4.92578 16.6746 4.72889 16.5664 4.51231 16.5664C4.29574 16.588 4.11854 16.6746 3.94134 16.8477Z" fill="white"/>
<path d="M1.914 16.8477C1.75649 17.0208 1.67773 17.2371 1.67773 17.4967C1.67773 17.7564 1.75649 17.9727 1.914 18.1458C2.07151 18.3189 2.26839 18.4055 2.48497 18.4055C2.72123 18.4055 2.91812 18.3189 3.07563 18.1458C3.23314 17.9727 3.3119 17.7564 3.3119 17.4967C3.3119 17.2371 3.23314 17.0208 3.07563 16.8477C2.91812 16.6746 2.72123 16.5664 2.48497 16.5664C2.26839 16.588 2.07151 16.6746 1.914 16.8477Z" fill="white"/>
<path d="M4.80757 24.3756H3.8822C2.64182 24.3756 2.03147 23.7481 2.03147 22.4933C2.03147 21.9524 2.16929 21.5197 2.42524 21.1951C2.68119 20.8489 3.05528 20.6759 3.50812 20.6759C4.37442 20.6759 4.82726 21.3033 4.82726 22.6014L4.80757 24.3756ZM3.62625 19.2695C2.60244 19.2695 1.7952 19.6157 1.22423 20.2864C0.692635 20.9138 0.416992 21.7144 0.416992 22.688C0.416992 24.765 1.51956 25.8035 3.705 25.8035H6.38267V22.3851C6.38267 20.308 5.4573 19.2695 3.62625 19.2695Z" fill="white"/>
<path d="M3.64638 38.417C3.70545 38.3954 3.7842 38.3738 3.88264 38.3305L3.37074 37.7896L3.92202 37.1622L4.43393 37.7031C4.51268 37.53 4.57175 37.3569 4.61113 37.2271C4.67019 37.0107 4.68988 36.7727 4.68988 36.5131C4.68988 35.8856 4.57175 35.388 4.33548 35.0635C4.09922 34.7173 3.76451 34.5442 3.31167 34.5442C2.89821 34.5442 2.54381 34.7173 2.30755 35.0418C2.0516 35.3664 1.93346 35.864 1.93346 36.5131C1.93346 37.292 2.11066 37.8329 2.46506 38.1574C2.70132 38.3738 2.97697 38.4819 3.29198 38.4819C3.41012 38.4603 3.52825 38.4603 3.64638 38.417ZM5.57587 37.6598C5.47743 37.9843 5.3593 38.2439 5.1821 38.4603L5.77276 39.0661L5.22148 39.7152L4.61113 39.0661C4.43393 39.1959 4.25673 39.2825 4.11891 39.3257C3.88264 39.4123 3.62669 39.4556 3.29198 39.4556C2.62257 39.4556 2.07128 39.2392 1.63813 38.8065C1.10654 38.2872 0.850586 37.5083 0.850586 36.4914C0.850586 35.4746 1.12623 34.6957 1.65782 34.1764C2.09097 33.7437 2.64226 33.5273 3.29198 33.5273C3.9614 33.5273 4.51268 33.7653 4.94583 34.2197C5.45774 34.7389 5.71369 35.4746 5.71369 36.4265C5.75307 36.9025 5.694 37.3352 5.57587 37.6598Z" fill="white"/>
<path d="M6.63867 33.9609H7.72155V37.401C7.72155 37.7905 7.76093 38.0717 7.83968 38.2448C7.9775 38.5477 8.25314 38.7208 8.68629 38.7208C9.11945 38.7208 9.39509 38.5694 9.53291 38.2448C9.61166 38.0717 9.65104 37.7905 9.65104 37.401V33.9609H10.7339V37.401C10.7339 38.0068 10.6552 38.4612 10.478 38.7857C10.1629 39.3915 9.57229 39.6944 8.68629 39.6944C7.8003 39.6944 7.20964 39.3915 6.89463 38.7857C6.71743 38.4612 6.63867 37.9852 6.63867 37.401V33.9609Z" fill="white"/>
<path d="M13.2144 37.5947H14.5138L13.8641 35.3878L13.2144 37.5947ZM13.2734 34.1113H14.4744L16.2858 39.715H15.1242L14.7895 38.5683H12.919L12.5646 39.715H11.4424L13.2734 34.1113Z" fill="white"/>
<path d="M17.0146 34.1113H18.0778V38.6981H20.6177V39.715H17.0146V34.1113Z" fill="white"/>
<path d="M22.3894 34.1113H21.3262V39.715H22.3894V34.1113Z" fill="white"/>
<path d="M27.1542 34.1113V35.1066H25.6381V39.715H24.5552V35.1066H23.0195V34.1113H27.1542Z" fill="white"/>
<path d="M30.7571 34.1113H31.9778L30.2649 37.6163V39.715H29.2017V37.6163L27.4297 34.1113H28.6898L29.753 36.5345L30.7571 34.1113Z" fill="white"/>
<path d="M37.8254 38.2008C38.0814 37.8546 38.1995 37.3787 38.1995 36.7512C38.1995 36.1238 38.0814 35.6262 37.8254 35.3016C37.5695 34.9554 37.2347 34.7824 36.8213 34.7824C36.4078 34.7824 36.0534 34.9554 35.8172 35.3016C35.5612 35.6478 35.4431 36.1238 35.4431 36.7729C35.4431 37.4003 35.5612 37.8979 35.8172 38.2224C36.0731 38.5686 36.4078 38.7417 36.8213 38.7417C37.2347 38.7417 37.5891 38.547 37.8254 38.2008ZM38.4948 39.0662C38.101 39.499 37.5498 39.7153 36.8213 39.7153C36.0928 39.7153 35.5415 39.499 35.1477 39.0662C34.6358 38.5254 34.3799 37.7681 34.3799 36.7512C34.3799 35.7127 34.6358 34.9554 35.1477 34.4362C35.5415 34.0035 36.0928 33.7871 36.8213 33.7871C37.5498 33.7871 38.101 34.0035 38.4948 34.4362C39.0067 34.9554 39.2627 35.7127 39.2627 36.7512C39.2627 37.7465 39.0067 38.5254 38.4948 39.0662Z" fill="white"/>
<path d="M40.1494 34.1113H43.7918V35.1066H41.2126V36.3831H43.4768V37.3567H41.2126V39.715H40.1494V34.1113Z" fill="white"/>
<path d="M46.5869 34.1113H47.6501V38.6981H50.2096V39.715H46.5869V34.1113Z" fill="white"/>
<path d="M51.9626 34.1113H50.8994V39.715H51.9626V34.1113Z" fill="white"/>
<path d="M53.0254 34.1113H56.6678V35.1066H54.0886V36.3831H56.3528V37.3567H54.0886V39.715H53.0254V34.1113Z" fill="white"/>
<path d="M61.2156 35.1066H58.4986V36.2965H60.9794V37.2702H58.4986V38.6981H61.3338V39.715H57.4551V34.1113H61.2156V35.1066Z" fill="white"/>
<path d="M66.886 35.258C66.7482 35.1282 66.571 35.0633 66.315 35.0633H65.3503V36.7076H66.315C66.5513 36.7076 66.7482 36.6427 66.886 36.5129C67.0238 36.3831 67.0829 36.1667 67.0829 35.8638C67.0829 35.6042 67.0238 35.3878 66.886 35.258ZM67.6933 37.2918C67.3979 37.5731 66.9648 37.7029 66.4135 37.7029H65.3503V39.715H64.2871V34.1113H66.4726C66.9845 34.1113 67.3782 34.2628 67.6736 34.544C67.9689 34.8253 68.1264 35.2797 68.1264 35.8855C68.1461 36.5345 67.9886 37.0105 67.6933 37.2918Z" fill="white"/>
<path d="M70.1345 35.0849V36.5994H71.2764C71.5127 36.5994 71.6702 36.5778 71.7883 36.5129C71.9852 36.4047 72.0837 36.1884 72.0837 35.8855C72.0837 35.5393 71.9852 35.3229 71.7883 35.1931C71.6702 35.1282 71.5127 35.0849 71.2961 35.0849H70.1345ZM72.3396 34.2411C72.5365 34.3277 72.694 34.4575 72.8121 34.6306C72.9106 34.782 73.009 34.9335 73.0681 35.1066C73.1272 35.2797 73.1665 35.4744 73.1665 35.6907C73.1665 35.9504 73.1075 36.21 72.9893 36.4696C72.8712 36.7293 72.6743 36.9024 72.379 37.0105C72.6153 37.1187 72.7728 37.2702 72.8712 37.4432C72.9697 37.638 73.009 37.9192 73.009 38.3303V38.6981C73.009 38.9577 73.009 39.1308 73.0287 39.2174C73.0484 39.3688 73.1272 39.477 73.2256 39.5419V39.6934H72.0443C72.0049 39.5636 71.9852 39.477 71.9852 39.3905C71.9655 39.239 71.9458 39.0659 71.9458 38.9145V38.3952C71.9458 38.0274 71.8868 37.7894 71.7686 37.6812C71.6702 37.5731 71.4536 37.5082 71.1583 37.5082H70.1148V39.715H69.0713V34.1113H71.5127C71.8868 34.1113 72.1624 34.1546 72.3396 34.2411Z" fill="white"/>
<path d="M77.5178 38.2008C77.7737 37.8546 77.8919 37.3787 77.8919 36.7512C77.8919 36.1238 77.7737 35.6262 77.5178 35.3016C77.2618 34.9554 76.9271 34.7824 76.5137 34.7824C76.1002 34.7824 75.7458 34.9554 75.5095 35.3016C75.2536 35.6478 75.1355 36.1238 75.1355 36.7729C75.1355 37.4003 75.2536 37.8979 75.5095 38.2224C75.7655 38.5686 76.1002 38.7417 76.5137 38.7417C76.9468 38.7201 77.2815 38.547 77.5178 38.2008ZM78.1872 39.0662C77.7934 39.499 77.2421 39.7153 76.5137 39.7153C75.7852 39.7153 75.2339 39.499 74.8401 39.0662C74.3282 38.5254 74.0723 37.7681 74.0723 36.7512C74.0723 35.7127 74.3282 34.9554 74.8401 34.4362C75.2339 34.0035 75.7852 33.7871 76.5137 33.7871C77.2421 33.7871 77.7934 34.0035 78.1872 34.4362C78.6991 34.9554 78.9551 35.7127 78.9551 36.7512C78.9551 37.7465 78.6991 38.5254 78.1872 39.0662Z" fill="white"/>
<path d="M83.2869 35.7124C83.2082 35.323 83.0113 35.0633 82.6963 34.9119C82.5191 34.8253 82.3222 34.7821 82.1056 34.7821C81.6921 34.7821 81.3574 34.9551 81.1015 35.3013C80.8455 35.6475 80.7077 36.1451 80.7077 36.8375C80.7077 37.5298 80.8455 38.0058 81.1409 38.3087C81.4362 38.59 81.7512 38.7414 82.1253 38.7414C82.4797 38.7414 82.775 38.6332 83.0113 38.3952C83.2476 38.1789 83.3854 37.876 83.4248 37.5082H82.2434V36.5778H84.3698V39.5852H83.661L83.5626 38.8929C83.3657 39.1525 83.1688 39.3472 83.0113 39.4554C82.7357 39.6501 82.3813 39.7366 81.9678 39.7366C81.2984 39.7366 80.7274 39.477 80.3139 38.9578C79.8611 38.4385 79.6445 37.7245 79.6445 36.8375C79.6445 35.9287 79.8808 35.1931 80.3336 34.6522C80.7865 34.1113 81.3968 33.8301 82.145 33.8301C82.7947 33.8301 83.3066 34.0032 83.7004 34.371C84.0942 34.7388 84.3107 35.1931 84.3698 35.734L83.2869 35.7124Z" fill="white"/>
<path d="M86.4958 35.0849V36.5994H87.6378C87.874 36.5994 88.0315 36.5778 88.1497 36.5129C88.3465 36.4047 88.445 36.1884 88.445 35.8855C88.445 35.5393 88.3465 35.3229 88.1497 35.1931C88.0315 35.1282 87.874 35.0849 87.6574 35.0849H86.4958ZM88.7009 34.2411C88.8978 34.3277 89.0553 34.4575 89.1735 34.6306C89.2719 34.782 89.3704 34.9335 89.4294 35.1066C89.4885 35.2797 89.5279 35.4744 89.5279 35.6907C89.5279 35.9504 89.4688 36.21 89.3507 36.4696C89.2325 36.7293 89.0356 36.9024 88.7403 37.0105C88.9766 37.1187 89.1341 37.2702 89.2325 37.4432C89.331 37.638 89.3704 37.9192 89.3704 38.3303V38.6981C89.3704 38.9577 89.3704 39.1308 89.39 39.2174C89.4097 39.3688 89.4885 39.477 89.5869 39.5419V39.6934H88.4056C88.3662 39.5636 88.3465 39.477 88.3465 39.3905C88.3269 39.239 88.3072 39.0659 88.3072 38.9145V38.3952C88.3072 38.0274 88.2481 37.7894 88.13 37.6812C88.0315 37.5731 87.8149 37.5082 87.5196 37.5082H86.4761V39.715H85.4326V34.1113H87.874C88.2481 34.1113 88.5237 34.1546 88.7009 34.2411Z" fill="white"/>
<path d="M92.0091 37.5947H93.3086L92.6589 35.3878L92.0091 37.5947ZM92.0879 34.1113H93.2889L95.1002 39.715H93.9386L93.6039 38.5683H91.7335L91.3791 39.715H90.2568L92.0879 34.1113Z" fill="white"/>
<path d="M99.1952 34.1113H100.731V39.715H99.7465V35.9287C99.7465 35.8206 99.7465 35.6691 99.7465 35.4744C99.7465 35.2797 99.7465 35.1282 99.7465 35.02L98.7817 39.715H97.7382L96.7735 35.02C96.7735 35.1282 96.7735 35.2797 96.7735 35.4744C96.7735 35.6691 96.7735 35.8206 96.7735 35.9287V39.715H95.7891V34.1113H97.3445L98.2698 38.525L99.1952 34.1113Z" fill="white"/>
<rect x="169" y="2" width="2" height="57" fill="white"/>
<path d="M233.8 1.89961H234.5V1.09961H233.8V1.89961Z" fill="white"/>
<path d="M252.9 13.4992H253.9V12.6992H252.9V13.4992Z" fill="white"/>
<path d="M264.2 11.6004C264.5 11.6004 264.7 11.3004 265 11.1004C265 10.8004 265 10.6004 265.3 10.3004C265.3 10.0004 265.3 9.80039 265.3 9.50039V2.90039H264.3V9.50039C264.3 9.80039 264.3 10.0004 264.3 10.0004C264.3 10.3004 264.3 10.3004 264.3 10.5004L264 10.8004C263.7 10.8004 263.7 10.8004 263.5 10.8004C263.5 10.8004 263.5 10.8004 263.2 10.8004C263.2 10.8004 263.2 10.8004 262.9 10.8004L262.6 11.6004C262.9 11.6004 263.1 11.9004 263.4 11.9004C263.9 11.9004 264.2 11.6004 264.2 11.6004Z" fill="white"/>
<path d="M261 1.4H259.7V1.1C259.7 0.8 260 0.799999 260 0.799999C260 0.799999 260 0.5 260.3 0.5H260.8V0H260.3C259.8 0 259.5 -7.7486e-07 259.5 0.299999C259.2 0.599999 259.2 0.8 259.2 1.1V1.9H261V1.4Z" fill="white"/>
<path d="M251.1 13.4992H252.1V12.6992H251.1V13.4992Z" fill="white"/>
<path d="M235.6 1.89961H236.4V1.09961H235.6V1.89961Z" fill="white"/>
<path d="M256.8 5.30039C257.1 4.80039 257.3 4.80039 257.3 4.50039C257.6 4.20039 257.8 4.20039 258.3 4.00039C258.6 4.00039 258.8 3.70039 259.1 3.70039H260.7L260.2 4.00039V8.20039H259.2C258.9 8.20039 258.7 8.20039 258.2 8.20039C257.9 7.90039 257.7 7.90039 257.4 7.70039C257.1 7.40039 257.1 7.40039 256.9 7.20039C256.9 6.90039 256.6 6.40039 256.6 6.20039C256.6 5.90039 256.8 5.60039 256.8 5.30039ZM256.8 8.50039C257.3 8.80039 257.6 9.00039 258.1 9.00039C258.6 9.30039 259.1 9.30039 259.7 9.30039H260L260.3 8.50039V9.50039C260.3 10.0004 260 10.3004 259.8 10.5004C259.5 10.8004 259.3 10.8004 258.8 10.8004C258.5 10.8004 258.3 10.8004 258 10.8004C257.7 10.8004 257.5 10.5004 257.2 10.5004L256.9 11.3004C257.2 11.6004 257.4 11.6004 257.7 11.6004C258 11.9004 258.2 11.9004 258.5 11.9004C259.5 11.9004 260.1 11.6004 260.6 11.1004C260.9 10.8004 261.1 10.1004 261.1 9.50039V2.90039H259.8C259 2.90039 258.5 2.90039 258.2 3.20039C257.7 3.20039 257.2 3.50039 256.9 3.70039C256.6 3.90039 256.4 4.50039 256.1 4.70039C255.8 5.20039 255.8 5.50039 255.8 6.00039C255.8 6.50039 255.8 7.00039 256.1 7.30039C256.3 7.90039 256.6 8.20039 256.8 8.50039Z" fill="white"/>
<path d="M230.6 7.20039C230.6 5.40039 231.9 3.80039 234 3.80039H236.1L235.6 4.10039V9.30039C235.6 9.80039 235.6 10.1004 235.6 10.3004C235.6 10.5004 235.6 10.6004 235.9 10.8004H234C231.9 10.8004 230.6 9.20039 230.6 7.40039V7.20039ZM234 11.6004H235.8V10.8004C235.8 11.1004 235.8 11.1004 235.8 11.1004C236.1 11.4004 236.1 11.4004 236.3 11.6004C236.6 11.6004 236.8 11.6004 237.3 11.6004H254.1V2.90039H253.3V10.8004H237.3C237 10.8004 236.8 10.8004 236.8 10.5004H236.5C236.5 10.2004 236.5 10.2004 236.2 10.0004C236.2 9.70039 236.2 9.50039 236.2 9.20039V2.90039H234C231.4 2.90039 229.5 5.00039 229.5 7.40039C229.6 9.50039 231.4 11.6004 234 11.6004Z" fill="white"/>
<path d="M225.1 9.3L225.4 10.3L219.6 3H218.5V11.6H219.6V5.1L219.1 3.8L225.1 11.6H225.9V3H225.1V9.3Z" fill="white"/>
<path d="M238.2 25.5008L243.4 20.5008V16.8008H229.3V21.0008H236.6L239.2 19.2008L232.4 26.0008L233.2 28.9008H235C237.6 28.9008 239.2 29.9008 239.2 31.5008V31.8008C239.2 33.4008 238.2 34.2008 236.3 34.2008C234.2 34.2008 232.6 33.4008 231.1 31.8008L228 34.7008C229.8 37.1008 232.5 38.4008 236.4 38.4008C241.1 38.4008 244 35.5008 244 31.6008C244 27.6008 241.1 26.0008 238.2 25.5008Z" fill="white"/>
<path d="M215.9 7.39922C215.9 9.19922 214.6 10.7992 212.5 10.7992C210.4 10.7992 209.1 9.19922 209.1 7.09922C209.1 5.29922 210.4 3.69922 212.5 3.69922C214.3 3.69922 215.9 5.29922 215.9 7.09922V7.39922ZM212.5 2.69922C209.9 2.69922 208 4.79922 208 7.19922V7.39922C208 9.79922 209.8 11.8992 212.5 11.8992C215.1 11.8992 217 9.79922 217 7.19922C217 4.79922 215.1 2.69922 212.5 2.69922Z" fill="white"/>
<path d="M262.9 27.5996C262.9 31.2996 260.3 34.1996 256.3 34.1996C252.6 34.1996 250 31.0996 250 27.5996V27.2996C250 23.8996 252.6 20.6996 256.3 20.6996C260 20.7996 262.9 23.8996 262.9 27.5996ZM256.3 16.5996C249.7 16.5996 245 21.5996 245 27.5996C245 33.5996 249.7 38.2996 256.3 38.2996C262.9 38.2996 267.6 33.5996 267.6 27.5996V27.2996C267.6 21.2996 262.9 16.5996 256.3 16.5996Z" fill="white"/>
<path d="M205.4 11.6H206.2V3H205.4V11.6Z" fill="white"/>
<path d="M189.4 35.7L190.4 34.9L194.9 31.2C198.8 28.3 200.7 26.7 200.7 23.1C200.7 19.2 197.8 16.5 193.4 16.5C189.5 16.5 187.6 18.1 185.5 21L188.6 23.6C190.2 21.8 191.5 20.7 193.1 20.7C194.7 20.7 196 21.7 196 23.6C196 25.2 195 26.5 192.3 28.6L185.3 34.4V38.1H201V34.2H192.9L189.4 35.7Z" fill="white"/>
<path d="M189.7 11.6L193.4 3H192.3L189.4 10V11.1L189.2 10.3L186.6 4.3L186 3H185L188.7 11.6H189.7Z" fill="white"/>
<path d="M194.7 11.6H195.7V3H194.7V11.6Z" fill="white"/>
<path d="M201 6.90078C198.9 6.40078 198.6 5.90078 198.6 5.10078C198.6 4.30078 199.1 3.80078 200.4 3.80078C201.2 3.80078 202 4.10078 202.8 4.60078L203.6 3.80078C202.6 3.30078 201.8 2.80078 200.5 2.80078C198.9 2.80078 197.6 3.80078 197.6 5.20078V5.50078C197.6 6.80078 198.4 7.30078 200.5 7.90078C202.3 8.40078 202.9 8.70078 202.9 9.50078V9.80078C202.9 10.6008 202.1 11.1008 200.8 11.1008C199.8 11.1008 198.7 10.8008 197.9 9.80078L197.4 10.6008C198.4 11.6008 199.5 12.2008 200.8 12.2008C202.6 12.2008 203.9 11.2008 203.9 9.60078C203.9 7.90078 202.8 7.20078 201 6.90078Z" fill="white"/>
<path d="M213.6 15.3008L214.6 16.3008L213.6 17.4008L212.5 16.3008L213.6 15.3008Z" fill="white"/>
<path d="M215.9 16.3008L217 17.4008L218 16.3008L217 15.3008L215.9 16.3008Z" fill="white"/>
<path d="M214.4 17.6004L215.4 18.4004L216.2 17.6004L215.1 16.9004L214.4 17.6004Z" fill="white"/>
<path d="M217.5 18.1996L218.3 18.9996L219.1 17.8996L218.3 17.0996L217.5 18.1996Z" fill="white"/>
<path d="M213 18.9992L213.8 19.6992L214.6 18.9992L213.8 18.1992L213 18.9992Z" fill="white"/>
<path d="M215.9 18.9992L216.7 19.6992L217.5 18.9992L216.7 18.1992L215.9 18.9992Z" fill="white"/>
<path d="M214.9 19.9992L215.4 20.4992L215.9 19.9992L215.4 19.1992L214.9 19.9992Z" fill="white"/>
<path d="M217 20.2992L217.5 21.0992L218.3 20.2992L217.5 19.6992L217 20.2992Z" fill="white"/>
<path d="M222 15.7996L222.2 17.5996L224.1 17.3996L223.8 15.5996L222 15.7996Z" fill="white"/>
<path d="M219.6 16.6008L219.9 18.2008L221.2 17.9008L220.9 16.3008L219.6 16.6008Z" fill="white"/>
<path d="M222.2 18.7004L222.5 20.3004L224.1 20.0004L223.8 18.4004L222.2 18.7004Z" fill="white"/>
<path d="M220.4 18.9992V19.9992L221.7 19.6992L221.4 18.6992L220.4 18.9992Z" fill="white"/>
<path d="M222.5 21.1008L222.7 22.1008H223.8L223.5 20.8008L222.5 21.1008Z" fill="white"/>
<path d="M218.5 19.4992L218.8 20.4992L219.9 20.2992V19.1992L218.5 19.4992Z" fill="white"/>
<path d="M220.6 20.8008L220.9 22.1008L222 21.8008L221.7 20.8008H220.6Z" fill="white"/>
<path d="M219.3 21.1008V21.8008L220.1 21.6008V20.8008L219.3 21.1008Z" fill="white"/>
<path d="M220.6 22.5996L220.9 23.3996H221.7L221.4 22.5996H220.6Z" fill="white"/>
<path d="M227.2 21.8008L226.4 23.7008L228.2 24.5008L229 22.6008L227.2 21.8008Z" fill="white"/>
<path d="M224.8 21.0996L224.3 22.3996L225.6 23.1996L226.2 21.7996L224.8 21.0996Z" fill="white"/>
<path d="M225.9 24.5L225.4 25.8L226.7 26.3L227.5 25L225.9 24.5Z" fill="white"/>
<path d="M224.3 23.4004L223.8 24.5004L224.8 25.0004L225.4 23.9004L224.3 23.4004Z" fill="white"/>
<path d="M224.8 26.5996L224.3 27.5996L225.4 27.8996L225.9 26.7996L224.8 26.5996Z" fill="white"/>
<path d="M222.5 22.9004L222.2 23.9004L223.3 24.2004L223.5 23.2004L222.5 22.9004Z" fill="white"/>
<path d="M223.5 25.3008L223 26.3008L224.1 26.8008L224.3 25.8008L223.5 25.3008Z" fill="white"/>
<path d="M222.2 24.5L221.7 25.3L222.5 25.5L223 24.7L222.2 24.5Z" fill="white"/>
<path d="M222.5 26.8008L222 27.3008L222.7 27.9008L223.3 27.1008L222.5 26.8008Z" fill="white"/>
<path d="M228.2 30L226.7 30.8L227.5 32.3L229 31.5L228.2 30Z" fill="white"/>
<path d="M226.7 27.9004L225.4 28.7004L226.2 30.0004L227.5 29.2004L226.7 27.9004Z" fill="white"/>
<path d="M225.6 31.3008L224.3 31.8008L225.1 33.1008L226.4 32.6008L225.6 31.3008Z" fill="white"/>
<path d="M224.8 29.4004L223.8 30.0004L224.3 31.0004L225.4 30.2004L224.8 29.4004Z" fill="white"/>
<path d="M223.5 32.0996L222.5 32.5996L223 33.5996L224.1 33.0996L223.5 32.0996Z" fill="white"/>
<path d="M223.8 27.9004L222.7 28.4004L223.3 29.4004L224.3 28.9004L223.8 27.9004Z" fill="white"/>
<path d="M223 30.1992L222 30.7992L222.7 31.7992L223.5 31.2992L223 30.1992Z" fill="white"/>
<path d="M222.5 28.9004L221.7 29.4004L222.2 30.0004L223 29.7004L222.5 28.9004Z" fill="white"/>
<path d="M221.4 31L220.6 31.3L221.2 32.1L221.7 31.5L221.4 31Z" fill="white"/>
<path d="M224.3 36.8008H222.5L222.2 38.6008H224.1L224.3 36.8008Z" fill="white"/>
<path d="M224.3 34.3992L222.7 34.1992L222.5 35.6992L224.1 35.9992L224.3 34.3992Z" fill="white"/>
<path d="M221.4 36.5008L219.9 36.3008V37.8008H221.2L221.4 36.5008Z" fill="white"/>
<path d="M222 34.4004H220.6V35.5004L221.7 35.7004L222 34.4004Z" fill="white"/>
<path d="M219.1 35.9992L218 35.6992L217.8 36.9992H219.1V35.9992Z" fill="white"/>
<path d="M222 32.8996L220.6 32.5996V33.5996L221.7 33.8996L222 32.8996Z" fill="white"/>
<path d="M219.9 34.1992H218.8L218.5 35.1992L219.6 35.4992L219.9 34.1992Z" fill="white"/>
<path d="M220.1 32.9004H219.3V33.6004H220.1V32.9004Z" fill="white"/>
<path d="M218 33.8996L217.2 33.5996V34.3996L218 34.6996V33.8996Z" fill="white"/>
<path d="M217 40.2004L215.7 38.9004L214.4 40.5004L215.7 41.5004L217 40.2004Z" fill="white"/>
<path d="M216.7 14.1992L215.4 13.1992L214.1 14.4992L215.4 15.7992L216.7 14.1992Z" fill="white"/>
<path d="M218.3 38.4008L217.2 37.3008L216.2 38.4008L217.2 39.4008L218.3 38.4008Z" fill="white"/>
<path d="M214.9 38.4008L213.8 37.3008L212.8 38.4008L213.8 39.4008L214.9 38.4008Z" fill="white"/>
<path d="M216.5 37.0008L215.4 36.3008L214.6 37.0008L215.7 37.8008L216.5 37.0008Z" fill="white"/>
<path d="M213.3 36.4992L212.5 35.6992L211.7 36.4992L212.5 37.2992L213.3 36.4992Z" fill="white"/>
<path d="M217.5 35.4992L216.7 34.6992L215.9 35.4992L216.7 36.2992L217.5 35.4992Z" fill="white"/>
<path d="M214.9 35.4992L214.1 34.6992L213.3 35.6992L214.1 36.4992L214.9 35.4992Z" fill="white"/>
<path d="M215.9 34.6992L215.4 34.1992L214.9 34.6992L215.4 35.1992L215.9 34.6992Z" fill="white"/>
<path d="M213.8 34.1996L213 33.5996L212.5 34.1996L213.3 34.6996L213.8 34.1996Z" fill="white"/>
<path d="M209.1 38.6L208.6 37L206.8 37.3L207.3 39.1L209.1 38.6Z" fill="white"/>
<path d="M211.5 37.8L210.9 36.5L209.6 36.8L209.9 38.1L211.5 37.8Z" fill="white"/>
<path d="M208.6 36.0004L208.3 34.4004L206.8 34.7004L207 36.3004L208.6 36.0004Z" fill="white"/>
<path d="M210.4 35.6992L210.2 34.6992H209.1L209.4 35.9992L210.4 35.6992Z" fill="white"/>
<path d="M212.3 35.1992L212 34.1992L210.9 34.3992V35.4992L212.3 35.1992Z" fill="white"/>
<path d="M210.2 33.5996L209.9 32.5996L208.8 32.8996L209.1 33.8996L210.2 33.5996Z" fill="white"/>
<path d="M211.5 33.6004V32.9004H210.7V33.6004H211.5Z" fill="white"/>
<path d="M209.9 32.1008V31.3008H209.1V32.1008H209.9Z" fill="white"/>
<path d="M203.6 32.9L204.1 31.3L202.6 30.5L201.8 32.1L203.6 32.9Z" fill="white"/>
<path d="M206 33.6L206.5 32.3L205.2 31.5L204.4 32.9L206 33.6Z" fill="white"/>
<path d="M204.7 30.2004L205.4 28.9004L203.9 28.4004L203.3 29.7004L204.7 30.2004Z" fill="white"/>
<path d="M206.5 31.2992L207 30.1992L206 29.6992L205.4 30.7992L206.5 31.2992Z" fill="white"/>
<path d="M207.8 33.9008L208.3 32.9008L207.3 32.3008L206.8 33.4008L207.8 33.9008Z" fill="white"/>
<path d="M206 28.1008L206.5 27.1008L205.4 26.8008L204.9 27.9008L206 28.1008Z" fill="white"/>
<path d="M208.1 31.7992L208.6 30.7992L207.5 30.1992L207 31.2992L208.1 31.7992Z" fill="white"/>
<path d="M207.3 29.4004L207.8 28.4004L206.8 27.9004L206.2 28.9004L207.3 29.4004Z" fill="white"/>
<path d="M208.6 30.1992L208.8 29.3992L208.1 29.1992L207.8 29.9992L208.6 30.1992Z" fill="white"/>
<path d="M208.3 27.9008L208.6 27.3008L207.8 26.8008L207.5 27.6008L208.3 27.9008Z" fill="white"/>
<path d="M202.6 25.0004L204.1 23.9004L203.1 22.4004L201.5 23.2004L202.6 25.0004Z" fill="white"/>
<path d="M203.9 26.7992L205.2 25.9992L204.4 24.6992L203.1 25.4992L203.9 26.7992Z" fill="white"/>
<path d="M204.9 23.3996L206.2 22.8996L205.4 21.5996L204.1 22.3996L204.9 23.3996Z" fill="white"/>
<path d="M205.7 25.2992L206.8 24.6992L206.2 23.6992L205.2 24.4992L205.7 25.2992Z" fill="white"/>
<path d="M207 22.5996L208.1 22.0996L207.5 21.0996L206.5 21.5996L207 22.5996Z" fill="white"/>
<path d="M206.8 26.8008L207.8 26.3008L207.3 25.3008L206.2 25.8008L206.8 26.8008Z" fill="white"/>
<path d="M207.5 24.5004L208.6 23.7004L208.1 22.9004L207 23.4004L207.5 24.5004Z" fill="white"/>
<path d="M208.1 25.8L208.8 25.3L208.3 24.5L207.8 25L208.1 25.8Z" fill="white"/>
<path d="M209.1 23.6996L209.9 23.3996L209.4 22.5996L208.8 22.8996L209.1 23.6996Z" fill="white"/>
<path d="M206.2 17.8996H208.1L208.3 16.0996H206.5L206.2 17.8996Z" fill="white"/>
<path d="M206.2 20.2992L207.8 20.4992L208.1 18.9992L206.5 18.6992L206.2 20.2992Z" fill="white"/>
<path d="M209.1 18.1996L210.7 18.3996V16.8996L209.4 16.5996L209.1 18.1996Z" fill="white"/>
<path d="M208.8 20.3H209.9V19.2L208.8 19V20.3Z" fill="white"/>
<path d="M211.5 18.7004H212.5L212.8 17.6004L211.5 17.4004V18.7004Z" fill="white"/>
<path d="M208.6 21.8008L209.9 22.1008V20.8008H208.8L208.6 21.8008Z" fill="white"/>
<path d="M210.7 20.2992L211.7 20.4992L212 19.1992H210.9L210.7 20.2992Z" fill="white"/>
<path d="M210.4 21.7996H211.2V21.0996H210.4V21.7996Z" fill="white"/>
<path d="M212.5 20.8H213.3V20H212.5V20.8Z" fill="white"/>
<path d="M221.2 28.3996C221.2 28.3996 220.9 28.3996 220.4 28.0996C219.9 28.0996 219.4 27.7996 218.6 28.0996C218.3 28.0996 217.8 28.0996 217.6 28.0996C217.6 28.3996 217.6 28.3996 217.6 28.3996C217.3 28.3996 217.3 28.3996 217.1 28.3996C217.1 28.6996 216.8 28.6996 216.8 28.6996C216.3 28.9996 216 29.1996 215.8 29.4996C215.5 27.3996 215.8 25.5996 215.8 24.7996C216.6 25.0996 216.3 26.3996 216.1 26.5996C217.1 25.5996 216.6 24.4996 216.4 24.1996C216.7 24.1996 216.7 24.4996 216.9 24.4996C217.2 24.7996 217.2 25.2996 217.2 25.4996C217.2 25.6996 217.2 25.7996 217.2 25.9996C217.5 25.6996 217.5 24.9996 217.2 24.1996C217.2 24.1996 216.9 23.8996 216.9 23.6996C216.9 23.6996 217.2 23.6996 217.2 23.9996C217.5 23.9996 217.7 24.2996 217.7 24.4996C218 24.7996 218 24.9996 218 25.2996C218 24.7996 218 24.2996 217.7 23.9996C217.7 23.6996 217.4 23.4996 217.2 23.4996C217.2 23.1996 216.9 23.1996 216.9 23.1996H217C217.3 23.1996 217.5 23.1996 217.5 23.4996C217.8 23.4996 218 23.7996 218 23.7996C218 23.4996 217.7 23.2996 217.5 22.9996C217.5 22.9996 217.2 22.6996 217 22.6996H216.7C216.4 22.6996 216.2 22.6996 216.2 22.6996C216.2 22.6996 216.5 22.3996 216.7 22.3996H217C217.3 22.3996 217.3 22.3996 217.3 22.3996C217.3 22.3996 217.3 22.0996 217 22.0996H216.7C216.2 21.7996 215.9 22.0996 215.7 22.3996C215.7 22.3996 215.7 22.3996 215.4 22.0996C215.4 21.7996 215.4 21.7996 215.4 21.5996C215.1 21.8996 215.1 22.0996 215.1 22.0996C215.1 22.3996 214.8 22.3996 214.8 22.3996C214.5 21.8996 213.8 21.8996 213.2 22.3996C213.5 22.3996 214 22.3996 214.5 22.6996C214.5 22.6996 214.5 22.6996 214.2 22.6996C213.9 22.6996 213.2 22.6996 212.9 23.1996C212.6 23.4996 212.6 23.4996 212.6 23.6996C212.6 23.6996 212.6 23.6996 212.9 23.3996C212.9 23.0996 213.4 23.0996 213.9 23.0996C213.6 23.0996 212.9 23.3996 212.9 24.0996C212.6 24.3996 212.6 24.5996 212.6 25.0996H213C213 24.5996 213.3 23.4996 214 23.4996C213.2 24.2996 213.2 25.2996 213.5 25.8996C213.5 25.5996 213.5 24.5996 214.3 24.0996C214 24.3996 213.8 25.3996 214.6 26.4996C214.3 26.1996 214.3 24.8996 214.9 24.6996C215.2 25.4996 215.2 27.2996 214.9 29.3996C214.4 28.8996 213.9 28.3996 213.1 28.3996C213.1 28.0996 213.1 28.0996 213.1 28.0996C212.3 28.0996 211.8 27.7996 211.3 27.7996C210.5 28.0996 210 28.0996 209.7 28.2996C210.2 28.2996 210.7 28.2996 211.3 28.2996C211.8 28.2996 212.6 28.5996 213.1 28.5996C213.6 29.0996 214.4 29.3996 214.9 29.8996C214.1 30.6996 213.3 31.4996 213.1 31.6996C212.8 31.6996 212.8 31.6996 212.8 31.6996C212.8 31.3996 212.5 31.3996 212.3 31.3996L212 31.7996C212 32.0996 212 32.2996 212 32.2996C212.3 32.5996 212.5 32.5996 213 32.2996C213.5 31.9996 214 31.2996 215.1 30.4996C215.1 30.4996 215.1 30.4996 215.4 30.4996C215.9 30.9996 216.2 31.2996 216.7 31.4996C216.7 31.7996 217 31.7996 217 31.9996C217.3 31.9996 217.5 32.2996 217.5 32.2996C218 32.5996 218.3 32.5996 218.5 32.2996C218.5 32.2996 218.5 31.9996 218.5 31.7996C218.2 31.4996 218.2 31.4996 218.2 31.4996C217.9 31.4996 217.7 31.4996 217.7 31.7996C217.7 31.7996 217.7 31.4996 217.4 31.4996C217.4 31.4996 217.1 31.1996 216.9 31.1996C216.9 30.8996 216.6 30.8996 216.6 30.6996C216.3 30.3996 215.8 30.1996 215.6 29.8996C215.9 29.5996 216.1 29.3996 216.6 29.3996C216.6 29.0996 216.9 29.0996 216.9 29.0996C217.2 28.7996 217.4 28.7996 217.4 28.7996C217.7 28.4996 217.9 28.4996 218.4 28.2996C218.9 28.2996 219.7 27.9996 220.2 28.2996C220.6 28.3996 220.9 28.3996 221.2 28.3996Z" fill="white"/>
<path d="M189.2 49.0996H189.7V48.5996H189.2V49.0996Z" fill="white"/>
<path d="M219.3 47.3004C219 47.3004 218.8 47.3004 218.8 47.3004C218.5 47.0004 218.5 47.0004 218.5 46.8004C218.2 46.5004 218.2 46.5004 218.2 46.3004C218.2 46.1004 218.2 46.0004 218.5 45.8004C218.5 45.5004 218.5 45.5004 218.8 45.3004C219.1 45.3004 219.1 45.3004 219.3 45.0004C219.3 45.0004 219.6 45.0004 219.8 45.0004H220.3V47.6004H219.8C219.6 47.5004 219.3 47.5004 219.3 47.3004ZM226.2 48.1004V44.4004H225.7V47.5004H223.6V44.4004H223V47.5004H220.9V44.4004H220.1C219.6 44.4004 219.3 44.4004 219.1 44.7004C218.8 44.7004 218.6 44.7004 218.6 45.0004C218.3 45.2004 218 45.2004 218 45.4004C217.7 45.7004 217.7 45.9004 217.7 46.2004C217.7 46.5004 217.7 46.7004 218 47.0004C218 47.3004 218.3 47.5004 218.5 47.5004C218.8 47.8004 218.8 47.8004 219 47.8004C219.3 48.1004 219.8 48.1004 220 48.1004H226.2Z" fill="white"/>
<path d="M214.6 48.1008H215.1V43.3008H214.6V48.1008Z" fill="white"/>
<path d="M220.4 43.9008H220.9V43.3008H220.4V43.9008Z" fill="white"/>
<path d="M225.6 49.0996H226.2V48.5996H225.6V49.0996Z" fill="white"/>
<path d="M190.2 49.0996H190.8V48.5996H190.2V49.0996Z" fill="white"/>
<path d="M200.7 47.5004L199.9 45.4004C200.2 45.1004 200.2 45.1004 200.4 45.1004C200.7 44.8004 200.9 44.8004 201.2 44.8004C201.5 44.8004 201.7 44.8004 202 45.1004C202 45.1004 202.3 45.4004 202.5 45.4004L201.7 47.5004H200.7ZM197.8 47.5004H197.3C197 47.5004 196.8 47.5004 196.8 47.2004C196.5 47.2004 196.3 47.2004 196.3 47.2004C196 47.0004 196 47.0004 196 46.7004C195.7 46.4004 195.7 46.4004 195.7 46.2004C195.7 46.0004 195.7 45.9004 196 45.7004C196 45.4004 196 45.4004 196.3 45.4004C196.6 45.1004 196.6 45.1004 196.8 45.1004C196.8 44.8004 197.1 44.8004 197.3 44.8004H197.8V47.5004ZM212.5 47.5004H211.7C211.4 47.5004 211.2 47.5004 210.9 47.2004C210.6 47.2004 210.6 46.9004 210.6 46.9004C210.6 46.6004 210.6 46.6004 210.6 46.4004V44.6004H210.1V46.4004C210.1 46.7004 209.8 46.9004 209.8 47.2004C209.5 47.5004 209.3 47.5004 209 47.5004C208.7 47.5004 208.7 47.5004 208.5 47.5004L208.2 47.2004L207.9 46.9004C207.9 46.6004 207.9 46.6004 207.9 46.6004V44.5004H207.4V46.3004C207.4 46.6004 207.4 46.8004 207.4 46.8004C207.1 46.8004 207.1 47.1004 207.1 47.1004C206.8 47.1004 206.8 47.1004 206.8 47.4004C206.5 47.4004 206.5 47.4004 206.3 47.4004H205.3V44.5004H204.8V47.4004H202.2L203 45.0004L202.7 44.7004C202.4 44.7004 202.2 44.4004 202.2 44.4004C201.9 44.4004 201.7 44.1004 201.7 44.1004C201.4 44.1004 201.2 44.1004 201.2 44.1004C200.9 44.1004 200.9 44.1004 200.7 44.1004C200.4 44.1004 200.4 44.4004 200.2 44.4004C200 44.4004 199.9 44.7004 199.7 44.7004C199.4 44.7004 199.4 45.0004 199.2 45.0004L200.2 47.4004H198.4V44.4004H197.6C197.1 44.4004 196.8 44.4004 196.6 44.7004C196.3 44.7004 196.1 44.7004 196.1 45.0004C195.8 45.3004 195.6 45.3004 195.6 45.5004C195.3 45.8004 195.3 46.0004 195.3 46.3004C195.3 46.6004 195.3 46.8004 195.6 47.1004C195.6 47.4004 195.9 47.6004 196.1 47.6004C196.4 47.9004 196.4 47.9004 196.6 47.9004C196.9 48.2004 197.4 48.2004 197.6 48.2004H197.9C197.9 48.5004 197.9 48.7004 197.6 49.0004C197.3 49.0004 197.1 49.0004 196.8 49.0004H196.5C196.2 49.0004 196.2 49.0004 196 49.0004L195.7 49.4004C196 49.4004 196.2 49.4004 196.2 49.4004C196.5 49.4004 196.7 49.4004 196.7 49.4004C197.2 49.4004 197.7 49.4004 198 49.1004C198 48.8004 198.3 48.6004 198.3 48.1004H206.4C206.7 48.1004 206.9 48.1004 207.2 47.8004C207.5 47.8004 207.5 47.5004 207.7 47.5004C207.7 47.5004 208 47.8004 208.2 47.8004C208.5 48.1004 208.7 48.1004 209 48.1004C209.3 48.1004 209.5 48.1004 209.8 47.8004C210.1 47.8004 210.3 47.5004 210.3 47.5004C210.3 47.5004 210.3 47.5004 210.6 47.5004C210.6 47.8004 210.6 47.8004 210.9 47.8004C210.9 47.8004 210.9 48.1004 211.2 48.1004H211.5H213V43.4004H212.5V47.5004Z" fill="white"/>
<path d="M187.4 43.9008H188.1V43.3008H187.4V43.9008Z" fill="white"/>
<path d="M241.4 43.9008H241.9V43.3008H241.4V43.9008Z" fill="white"/>
<path d="M236.6 48.1008H237.2V43.3008H236.6V48.1008Z" fill="white"/>
<path d="M219.3 43.9008H219.9V43.3008H219.3V43.9008Z" fill="white"/>
<path d="M194.4 46.0004C194.4 45.7004 194.4 45.5004 194.4 45.5004C194.4 45.2004 194.1 45.0004 194.1 45.0004C193.8 44.7004 193.8 44.7004 193.6 44.7004C193.4 44.4004 193.1 44.4004 192.9 44.4004H192.6V44.9004H193.1H193.4C193.7 45.2004 193.7 45.2004 193.7 45.2004C194 45.5004 194 45.5004 194 45.5004C194 45.8004 194 45.8004 194 46.0004V47.6004H191.4V48.1004H194.5V46.0004H194.4Z" fill="white"/>
<path d="M264.7 48.1008H265.2V43.3008H264.7V48.1008Z" fill="white"/>
<path d="M242.1 43.9008H242.7V43.3008H242.1V43.9008Z" fill="white"/>
<path d="M260.2 47.3008C260.2 47.6008 260.2 47.6008 259.9 47.8008C259.9 47.8008 259.6 47.8008 259.4 48.1008C259.4 48.1008 259.1 48.1008 258.9 48.1008C258.9 48.1008 258.6 48.1008 258.4 48.1008C258.4 47.8008 258.1 47.8008 258.1 47.8008C257.8 47.5008 257.8 47.3008 257.8 47.3008C257.5 47.0008 257.5 47.0008 257.5 46.8008C257.5 46.5008 257.5 46.3008 257.8 46.3008C257.8 46.0008 257.8 46.0008 258.1 45.8008L258.4 45.5008C258.7 45.5008 258.9 45.2008 258.9 45.2008C259.2 45.2008 259.4 45.5008 259.4 45.5008C259.7 45.5008 259.9 45.8008 259.9 45.8008C260.2 45.8008 260.2 46.1008 260.2 46.3008C260.5 46.3008 260.5 46.6008 260.5 46.8008C260.5 47.0008 260.5 47.0008 260.2 47.3008ZM255.3 47.3008C255 47.6008 255 47.6008 254.8 47.8008C254.8 47.8008 254.5 47.8008 254.5 48.1008C254.2 48.1008 254 48.1008 254 48.1008C253.7 48.1008 253.5 48.1008 253.5 48.1008C253.2 47.8008 253 47.8008 253 47.8008C252.7 47.5008 252.7 47.3008 252.7 47.3008C252.7 47.0008 252.4 47.0008 252.4 46.8008C252.4 46.5008 252.7 46.3008 252.7 46.3008C252.7 46.0008 252.7 46.0008 253 45.8008C253 45.8008 253.3 45.5008 253.5 45.5008C253.5 45.5008 253.8 45.2008 254 45.2008C254 45.2008 254.3 45.5008 254.5 45.5008L254.8 45.8008C255.1 45.8008 255.1 46.1008 255.3 46.3008C255.3 46.3008 255.3 46.6008 255.3 46.8008C255.3 47.0008 255.3 47.0008 255.3 47.3008ZM242.1 47.5008H241.6C241.6 47.5008 241.3 47.5008 241.1 47.2008C240.8 47.2008 240.8 47.2008 240.6 47.2008C240.6 46.9008 240.3 46.9008 240.3 46.7008C240.3 46.4008 240.3 46.4008 240.3 46.2008C240.3 46.0008 240.3 45.9008 240.3 45.7008C240.6 45.4008 240.6 45.4008 240.6 45.2008C240.9 45.2008 241.1 45.2008 241.1 44.9008C241.4 44.9008 241.6 44.9008 241.6 44.9008H242.1V47.5008ZM263.1 43.3008H262.6V47.5008H260.8C261.1 47.2008 261.1 47.0008 261.1 46.7008C261.1 46.4008 261.1 46.2008 260.8 45.9008C260.8 45.6008 260.5 45.4008 260.5 45.4008C260.2 45.1008 260 44.9008 259.7 44.9008C259.4 44.9008 259.2 44.6008 258.9 44.6008C258.6 44.6008 258.4 44.9008 258.1 44.9008C258.1 44.9008 257.8 45.2008 257.6 45.4008C257.6 45.4008 257.3 45.7008 257.3 45.9008C257 46.2008 257 46.4008 257 46.7008V47.0008C257 47.3008 257.3 47.3008 257.3 47.5008H255.5C255.8 47.2008 255.8 47.0008 255.8 46.7008C255.8 46.4008 255.8 46.2008 255.5 45.9008C255.5 45.6008 255.5 45.4008 255.2 45.4008C254.9 45.1008 254.7 44.9008 254.7 44.9008C254.4 44.9008 254.2 44.6008 253.9 44.6008C253.6 44.6008 253.4 44.9008 253.1 44.9008C252.8 44.9008 252.6 45.2008 252.6 45.4008C252.3 45.4008 252.1 45.7008 252.1 45.9008C252.1 46.2008 251.8 46.4008 251.8 46.7008C251.8 46.7008 251.8 47.0008 252.1 47.0008C252.1 47.3008 252.1 47.3008 252.1 47.5008H250.5V43.3008H250V47.5008H248.2V46.7008C248.2 46.4008 248.2 46.2008 248.2 45.9008L247.9 45.6008C247.6 45.3008 247.6 45.3008 247.4 45.1008C247.1 45.1008 247.1 45.1008 246.9 45.1008H244.5L245.3 43.3008H244.8L243.8 45.1008C243.8 45.1008 243.8 45.4008 244.1 45.4008V45.7008H247H247.3C247.6 45.7008 247.6 46.0008 247.6 46.0008C247.9 46.0008 247.9 46.3008 247.9 46.3008C247.9 46.6008 247.9 46.6008 247.9 46.8008V47.6008H242.9V44.4008H242.1C241.8 44.4008 241.6 44.4008 241.3 44.7008C241 44.7008 240.8 44.7008 240.5 45.0008C240.2 45.3008 240 45.2008 239.8 45.4008C239.8 45.7008 239.8 45.9008 239.8 46.2008C239.8 46.5008 239.8 46.7008 239.8 47.0008C240.1 47.3008 240.1 47.5008 240.3 47.5008C240.6 47.8008 240.8 47.8008 241.1 47.8008C241.4 48.1008 241.6 48.1008 241.9 48.1008H252.4C252.7 48.4008 252.9 48.4008 253.2 48.6008C253.5 48.6008 253.7 48.6008 254 48.6008C254.3 48.6008 254.5 48.6008 254.8 48.6008C255.1 48.3008 255.1 48.3008 255.3 48.1008H257.7C258 48.4008 258 48.4008 258.2 48.6008C258.5 48.6008 258.7 48.6008 259 48.6008C259.3 48.6008 259.5 48.6008 259.8 48.6008C260.1 48.3008 260.3 48.3008 260.6 48.1008H263.2V43.3008H263.1Z" fill="white"/>
<path d="M185.5 46.2004C185.5 45.9004 185.5 45.9004 185.5 45.7004C185.8 45.4004 185.8 45.4004 186 45.2004C186 45.2004 186.3 45.2004 186.5 44.9004C186.5 44.9004 186.8 44.9004 187 44.9004H187.5V47.5004H187C186.7 47.5004 186.5 47.5004 186.2 47.2004H186C185.7 46.9004 185.7 46.9004 185.5 46.7004C185.5 46.5004 185.5 46.5004 185.5 46.2004ZM186.3 47.8004C186.6 48.1004 186.8 48.1004 187.1 48.1004H190.8V44.4004H190.3V47.5004H188.2V44.4004H187.2C186.9 44.4004 186.7 44.4004 186.4 44.7004C186.1 44.7004 185.9 44.7004 185.6 45.0004C185.6 45.3004 185.3 45.3004 185.3 45.5004C185 45.7004 185 46.0004 185 46.2004C185 46.4004 185 46.7004 185.3 47.0004C185.3 47.3004 185.6 47.5004 185.8 47.5004C185.8 47.8004 186 47.8004 186.3 47.8004Z" fill="white"/>
<path d="M223.5 49.0996H224.1V48.5996H223.5V49.0996Z" fill="white"/>
<path d="M222.7 49.0996H223.3V48.5996H222.7V49.0996Z" fill="white"/>
<path d="M229.8 45.4004C230.1 45.1004 230.3 45.1004 230.6 45.1004C230.6 44.8004 230.9 44.8004 231.1 44.8004C231.3 44.8004 231.6 44.8004 231.9 45.1004C232.2 45.1004 232.4 45.4004 232.4 45.4004L231.6 47.5004H230.6L229.8 45.4004ZM228 48.6004C228.3 48.6004 228.3 48.3004 228.3 48.1004H235.1V43.4004H234.6V47.6004H232.2L233.2 45.2004C232.9 45.2004 232.9 44.9004 232.7 44.9004C232.4 44.9004 232.4 44.6004 232.2 44.6004C231.9 44.6004 231.9 44.3004 231.7 44.3004C231.4 44.3004 231.4 44.3004 231.2 44.3004C231.2 44.3004 230.9 44.3004 230.7 44.3004C230.7 44.3004 230.4 44.6004 230.2 44.6004C230.2 44.6004 229.9 44.9004 229.7 44.9004L229.4 45.2004L230.2 47.6004H228.4V44.4004H227.9V48.1004C227.9 48.4004 227.9 48.4004 227.9 48.6004C227.9 48.6004 227.6 48.6004 227.6 48.9004C227.3 48.9004 227.3 48.9004 227.3 48.9004H227L226.7 49.4004C227 49.4004 227 49.4004 227.2 49.4004C227.4 49.4004 227.5 49.4004 227.7 49.4004L228 49.1004C228 49.1004 228 48.8004 228 48.6004Z" fill="white"/>
<path d="M186.6 43.9008H187.1V43.3008H186.6V43.9008Z" fill="white"/>
<path d="M188.9 51.5H187.9L186.3 53.3V51.5H185.5V55.4H186.3V54.1L186.8 53.6L188.1 55.4H188.9L187.4 53L188.9 51.5Z" fill="white"/>
<path d="M189.4 55.4H190.2V51.5H189.4V55.4Z" fill="white"/>
<path d="M193.9 54.1L191.8 51.5H191.3V55.4H191.8V52.5L193.9 55.4H194.4V51.5H193.9V54.1Z" fill="white"/>
<path d="M197.3 53.8H198.1V54.4C198.1 54.7 197.6 54.9 197.3 54.9C196.5 54.9 196 54.1 196 53.3C196 52.8 196.5 52 197.3 52C197.8 52 198.1 52.3 198.3 52.5L198.6 52C198.3 51.7 197.8 51.5 197.3 51.5C196 51.5 195.2 52.3 195.2 53.3C195.2 54.6 196 55.4 197.3 55.4C197.8 55.4 198.6 55.1 198.9 54.9V53.3H197.3V53.8Z" fill="white"/>
<path d="M202.6 53.3C202.6 54.1 202.1 54.6 201.3 54.6H200.5V52H201.3C202 52 202.6 52.8 202.6 53.3ZM201.2 51.5H199.6V55.4H201.2C202.2 55.4 203.3 54.4 203.3 53.3C203.3 52.3 202.3 51.5 201.2 51.5Z" fill="white"/>
<path d="M207 53.3C207 54.1 206.5 54.9 206 54.9C205.2 54.9 204.7 54.1 204.7 53.3C204.7 52.8 205.2 52 206 52C206.5 52 207 52.8 207 53.3ZM206 51.5C204.7 51.5 203.9 52.3 203.9 53.3C203.9 54.3 204.7 55.4 206 55.4C207 55.4 207.8 54.4 207.8 53.3C207.8 52.3 207 51.5 206 51.5Z" fill="white"/>
<path d="M210.4 53.3L209.4 51.5H208.6V55.4H209.4V52.5L210.4 54.4L211.7 52.5V55.4H212.5V51.5H211.7L210.4 53.3Z" fill="white"/>
<path d="M218 53.3C218 54.1 217.5 54.9 216.7 54.9C216.2 54.9 215.4 54.1 215.4 53.3C215.4 52.8 215.9 52 216.7 52C217.5 52 218 52.8 218 53.3ZM216.7 51.5C215.7 51.5 214.9 52.3 214.9 53.3C214.9 54.3 215.7 55.4 216.7 55.4C218 55.4 218.8 54.4 218.8 53.3C218.8 52.3 218 51.5 216.7 51.5Z" fill="white"/>
<path d="M219.6 55.4H220.4V53.8H222.2V53H220.4V52H222.5V51.5H219.6V55.4Z" fill="white"/>
<path d="M226.4 53C225.6 53 225.4 52.7 225.4 52.5C225.4 52.2 225.7 52 225.9 52C226.4 52 226.7 52.3 226.9 52.5L227.4 52C226.9 51.7 226.6 51.5 225.8 51.5C225.3 51.5 224.8 52 224.8 52.5C224.8 53.3 225.1 53.5 225.8 53.5C226.6 53.8 226.8 54 226.8 54.3C226.8 54.6 226.5 54.8 226 54.8C225.5 54.8 225.2 54.5 224.7 54.3L224.4 54.6C224.9 55.1 225.4 55.4 226 55.4C226.8 55.4 227.3 54.9 227.3 54.1C227.5 53.6 227.2 53.3 226.4 53Z" fill="white"/>
<path d="M229.3 53.8L229.8 52.2L230.6 53.8H229.3ZM229.6 51.5L228 55.4H228.5L229 54.4H230.8L231.1 55.4H231.9L230.1 51.5H229.6Z" fill="white"/>
<path d="M234.8 53.6C234.8 54.4 234.5 54.6 233.8 54.6C233.3 54.6 233 54.3 233 53.6V51.5H232.2V53.6C232.2 54.9 233 55.4 233.8 55.4C234.8 55.4 235.6 54.9 235.6 53.6V51.5H234.8V53.6Z" fill="white"/>
<path d="M239.3 53.3C239.3 54.1 238.8 54.6 238 54.6H237.2V52H238C238.7 52 239.3 52.8 239.3 53.3ZM237.9 51.5H236.3V55.4H237.9C238.9 55.4 239.7 54.4 239.7 53.3C239.8 52.3 239 51.5 237.9 51.5Z" fill="white"/>
<path d="M240.8 55.4H241.4V51.5H240.8V55.4Z" fill="white"/>
<path d="M245 53.8L245.8 52.2L246.3 53.8H245ZM245.3 51.5L243.7 55.4H244.5L244.8 54.4H246.6L246.9 55.4H247.7L246.1 51.5H245.3Z" fill="white"/>
<path d="M249 53.3V52H250C250.5 52 250.8 52.3 250.8 52.8C250.8 53.1 250.5 53.3 250 53.3H249ZM251.3 52.8C251.3 52.3 251.3 52 251 52C250.7 51.7 250.5 51.5 250 51.5H248.4V55.4H249V54.1H249.8L250.8 55.4H251.6L250.6 53.8C251.1 53.8 251.3 53.3 251.3 52.8Z" fill="white"/>
<path d="M253.4 53.8L253.9 52.2L254.7 53.8H253.4ZM253.7 51.5L252.1 55.4H252.6L253.1 54.4H254.9L255.2 55.4H256L254.2 51.5H253.7Z" fill="white"/>
<path d="M259.2 54.1004C259.2 54.6004 258.9 54.6004 258.4 54.6004H257.4V53.6004H258.4C258.9 53.6004 259.2 53.8004 259.2 54.1004ZM257.3 52.0004H258.1C258.6 52.0004 258.9 52.3004 258.9 52.5004C258.9 53.0004 258.6 53.0004 258.1 53.0004H257.3V52.0004ZM258.9 53.3004C259.4 53.3004 259.4 53.0004 259.4 52.5004C259.4 52.2004 259.4 52.0004 259.4 51.7004C259.1 51.7004 258.6 51.4004 258.4 51.4004H256.6V55.4004H258.4C259.2 55.4004 259.7 54.9004 259.7 54.4004C259.7 53.8004 259.4 53.6004 258.9 53.3004Z" fill="white"/>
<path d="M260.5 55.4H261.3V51.5H260.5V55.4Z" fill="white"/>
<path d="M263.1 53.8L263.9 52.2L264.4 53.8H263.1ZM264.2 51.5H263.7L261.9 55.4H262.7L263.2 54.4H264.8L265.3 55.4H266.1L264.2 51.5Z" fill="white"/>
</svg>
