<svg width="308" height="16" viewBox="0 0 308 16" fill="none" xmlns="http://www.w3.org/2000/svg">
<rect width="9" height="16" fill="#F49A20"/>
<rect x="14" width="5" height="16" fill="#F49A20"/>
<rect x="24" width="12" height="16" fill="#F49A20"/>
<rect x="41" width="6" height="16" fill="#F49A20"/>
<rect x="52" width="10" height="16" fill="#F49A20"/>
<rect x="67" width="10" height="16" fill="#F49A20"/>
<rect x="82" width="18" height="16" fill="#F49A20"/>
<rect x="105" width="13" height="16" fill="#F49A20"/>
<rect x="123" width="19" height="16" fill="#F49A20"/>
<rect x="147" width="8" height="16" fill="#F49A20"/>
<rect x="160" width="10" height="16" fill="#F49A20"/>
<rect x="175" width="9" height="16" fill="#F49A20"/>
<rect x="189" width="5" height="16" fill="#F49A20"/>
<rect x="199" width="12" height="16" fill="#F49A20"/>
<rect x="216" width="6" height="16" fill="#F49A20"/>
<rect x="227" width="10" height="16" fill="#F49A20"/>
<rect x="242" width="10" height="16" fill="#F49A20"/>
<rect x="257" width="18" height="16" fill="#F49A20"/>
<rect x="280" width="13" height="16" fill="#F49A20"/>
<rect x="298" width="10" height="16" fill="#F49A20"/>
</svg>
