<svg width="305" height="83" viewBox="0 0 305 83" fill="none" xmlns="http://www.w3.org/2000/svg">
<path fill-rule="evenodd" clip-rule="evenodd" d="M104.254 1.40282C96.7239 5.50482 92.3539 12.2288 90.7749 22.1398C89.4359 30.5488 90.7999 42.0748 94.2639 51.6188C95.5719 55.2198 96.4149 58.5328 96.1389 58.9808C95.8619 59.4278 92.7169 59.7938 89.1499 59.7938C83.5959 59.7938 82.3099 59.4408 80.2089 57.3388C77.7789 54.9098 77.7539 54.6958 77.7539 36.3388V17.7938H74.7539H71.7539V36.3928C71.7539 58.1218 72.3899 60.4708 79.1629 63.7498C82.4109 65.3218 85.3669 65.7938 91.9769 65.7938H100.569L106.283 74.2938C109.426 78.9688 112.531 82.7938 113.184 82.7938C113.837 82.7938 115.159 82.2178 116.121 81.5148C117.747 80.3258 117.633 79.9158 114.528 75.7648C110.943 70.9698 107.754 66.1188 107.754 65.4578C107.754 65.2348 110.417 64.7508 113.671 64.3828C116.925 64.0148 122.647 62.8648 126.387 61.8278C130.126 60.7908 133.504 60.1398 133.893 60.3798C134.282 60.6198 134.882 62.0488 135.226 63.5548C136.782 70.3598 144.443 74.2038 150.993 71.4668C156.443 69.1898 158.754 63.9358 158.754 53.8198C158.754 45.7948 158.77 45.7458 163.125 40.3998C173.581 27.5618 176.592 13.0988 170.416 5.38282C165.756 -0.438178 155.057 2.55682 147.668 11.7518L144.431 15.7788L139.095 10.7318C131.645 3.68582 124.2 0.420822 114.754 0.0568221C109.267 -0.154178 106.449 0.206822 104.254 1.40282ZM129.254 10.4758C131.454 11.8648 134.973 14.8658 137.073 17.1448C141.29 21.7198 141.281 21.2668 137.38 32.5868C135.998 36.5978 134.565 42.9448 134.196 46.6908L133.524 53.5008L128.389 55.0968C121.31 57.2958 110.751 59.0098 106.682 58.6188C103.493 58.3128 103.137 57.8848 100.59 51.2938C93.4899 32.9178 94.9419 15.3248 104.138 8.31582C109.711 4.06982 120.588 5.00482 129.254 10.4758ZM165.881 9.92082C167.706 11.7458 167.927 12.8248 167.441 17.5368C166.818 23.5728 162.787 32.4748 159.114 35.9248C157.821 37.1408 156.602 37.9458 156.407 37.7148C155.58 36.7338 148.754 21.8718 148.754 21.0518C148.754 19.5088 155.983 11.6258 159.193 9.66782C163.037 7.32382 163.294 7.33382 165.881 9.92082ZM180.754 41.1768V64.5608L183.23 65.0338C184.593 65.2948 185.943 65.2718 186.23 64.9838C186.518 64.6958 186.754 61.1608 186.754 57.1268V49.7938H197.21H207.666L207.96 57.0438C208.248 64.1388 208.313 64.3008 211.023 64.6118L213.791 64.9298L213.523 41.6118L213.254 18.2938H210.754H208.254L207.975 31.5438L207.696 44.7938H197.225H186.754V31.9008C186.754 21.0668 186.501 18.9108 185.172 18.4008C180.721 16.6928 180.754 16.5248 180.754 41.1768ZM296.783 20.2628C294.06 23.1618 294.423 25.4278 297.953 27.5628C300.481 29.0918 300.783 29.0778 302.703 27.3398C305.526 24.7858 305.272 22.5528 301.873 20.0398L298.993 17.9108L296.783 20.2628ZM29.0289 25.7548C19.2209 28.1148 13.4349 38.8538 18.8439 44.6598C19.9929 45.8938 23.3679 48.0168 26.3439 49.3778C33.0299 52.4358 33.5999 55.0168 28.0039 56.9028C22.8299 58.6468 12.3849 58.2528 9.2449 56.1958C5.8839 53.9938 5.1899 50.5868 6.6559 43.4878C8.0079 36.9428 8.0859 37.2978 5.0969 36.3798C3.2019 35.7988 2.7319 36.3448 1.2289 40.8678C-1.9001 50.2878 1.1129 59.3748 8.3709 62.4068C16.5869 65.8398 33.9089 63.1088 36.6729 57.9448C39.7709 52.1568 36.9479 47.4618 27.8309 43.2378C22.5819 40.8058 21.6109 38.8758 24.0359 35.6978C26.1999 32.8618 31.6849 30.6198 34.7899 31.3018C37.3089 31.8548 37.7649 31.5998 38.3369 29.3188C38.6989 27.8788 38.8279 26.5488 38.6239 26.3638C37.6009 25.4338 31.8749 25.0698 29.0289 25.7548ZM49.9459 26.8178C46.3409 29.0158 42.8119 35.5518 42.7759 40.0938C42.7479 43.6268 45.1879 48.4208 47.6989 49.7638C48.7569 50.3308 52.1389 50.7938 55.2139 50.7938H60.8049L59.2319 53.8368C57.4099 57.3598 53.7969 59.0218 48.7519 58.6578C44.5199 58.3518 42.7539 59.2588 42.7539 61.7358C42.7539 65.0598 51.6269 65.8968 57.4689 63.1248C68.6799 57.8048 71.0609 38.4568 61.7129 28.6298C57.5379 24.2408 54.8509 23.8278 49.9459 26.8178ZM148.504 35.3188C151.722 43.2168 151.506 44.1598 145.645 47.7658C142.835 49.4948 140.284 50.6568 139.975 50.3488C139.303 49.6768 142.559 34.0358 143.89 31.5438C145.356 28.7988 146.093 29.4018 148.504 35.3188ZM57.0369 32.0438C57.9519 32.7318 59.4059 35.3118 60.2659 37.7788C61.7189 41.9428 61.7069 42.3548 60.1009 43.5288C57.7269 45.2648 51.2739 45.1248 49.7629 43.3048C48.0529 41.2448 49.3159 35.2798 51.9889 32.7898C54.5049 30.4448 54.8409 30.3958 57.0369 32.0438ZM225.114 34.2538C223.148 35.6308 220.036 41.4568 220.869 42.2018C221.081 42.3908 222.252 42.8518 223.471 43.2268C225.284 43.7838 225.805 43.4378 226.336 41.3238C227.973 34.8008 239.754 35.2278 239.754 41.8098C239.754 44.0768 239.235 44.8508 237.504 45.1668C236.266 45.3928 232.554 46.0698 229.254 46.6708C222.105 47.9728 219.754 50.2698 219.754 55.9498C219.754 61.7408 223.144 64.7938 229.574 64.7938C232.946 64.7938 235.269 64.1768 236.99 62.8228C239.486 60.8588 239.503 60.8588 241.323 62.8698C242.452 64.1178 244.121 64.7748 245.693 64.5908C248.944 64.2108 249.796 60.8788 246.841 60.1058C244.88 59.5938 244.754 58.8768 244.754 48.2448V36.9298L241.85 34.8618C238.297 32.3328 228.373 31.9718 225.114 34.2538ZM251.352 36.3288C251.702 37.7228 253.669 44.5858 255.724 51.5788C259.335 63.8718 259.55 64.2938 262.205 64.2938C264.836 64.2938 265.052 63.8978 267.378 54.7938C270.591 42.2178 270.765 41.7938 271.711 44.2938C272.127 45.3938 273.501 50.4568 274.763 55.5438C276.95 64.3588 277.185 64.7938 279.757 64.7938C282.344 64.7938 282.608 64.2848 286.1 52.5438C288.104 45.8068 290.027 38.8318 290.374 37.0438C290.946 34.0928 290.779 33.7938 288.565 33.7938C286.307 33.7938 285.954 34.5138 283.792 43.5438C282.508 48.9058 281.115 53.9528 280.696 54.7578C279.931 56.2298 278.535 52.2208 275.489 39.7938C274.259 34.7738 273.879 34.2678 271.146 33.9948L268.15 33.6968L265.804 43.4948C264.513 48.8848 263.104 53.9688 262.673 54.7938C261.692 56.6698 261.675 56.6208 258.679 43.5438C256.492 33.9998 256.385 33.7938 253.58 33.7938C251.014 33.7938 250.782 34.0578 251.352 36.3288ZM296.754 49.2938V64.7938H299.681H302.607L302.698 49.2938L302.789 33.7938H299.772H296.754V49.2938ZM239.754 52.1048C239.754 58.3958 232.312 62.6998 227.213 59.3588C224.676 57.6968 224.119 55.3448 225.679 52.8808C226.381 51.7728 234.248 49.4088 239.004 48.8778C239.416 48.8318 239.754 50.2838 239.754 52.1048ZM153.099 53.0438C153.917 56.3178 152.206 62.7858 149.916 65.0758C147.224 67.7688 143.271 66.6948 141.211 62.7118C140.343 61.0318 139.772 59.2488 139.943 58.7488C140.239 57.8838 150.549 51.1088 151.896 50.8958C152.248 50.8398 152.79 51.8068 153.099 53.0438ZM11.0039 71.5628L8.7539 74.2938L11.5039 76.5388C14.7349 79.1768 16.0589 79.3368 17.7539 77.2938C19.4429 75.2588 21.0959 75.4088 23.2539 77.7938C25.6309 80.4208 26.9139 80.3168 29.7809 77.2648L32.1569 74.7358L28.8989 71.5148L25.6399 68.2938L23.7869 70.5438C21.5049 73.3138 20.2809 73.3628 17.5239 70.7938C14.7069 68.1698 13.7019 68.2878 11.0039 71.5628Z" fill="#F49529"/>
</svg>
